<svg xmlns="http://www.w3.org/2000/svg" viewBox="0 0 73.45 43.99"><path d="M32.6 20.61a.21.21 0 0 1 .11-.13.2.2 0 0 1 .17 0c1.25 0 1.25 0 1.75-1.21a.45.45 0 0 1 .39-.19 3.44 3.44 0 0 0 2.55-.52 1 1 0 0 0 .43-1.08.88.88 0 0 0 1.15-.48c.61-.47 1-1.25 2-1.22.14.08.28.26.4.24 2-.24 3.61-1.42 5.3-2.4a1.46 1.46 0 0 0 .74-1.48 4.93 4.93 0 0 0 1.63-.14 2.8 2.8 0 0 1 3.37.5c.07.07.33 0 .44-.06a.42.42 0 0 0 0-.39c-.19-.35-.52-.65-.48-1.1.07-.81.8-.29 1.14-.56a2.82 2.82 0 0 0 .41-.39c.72-.77 2-.11 2.64-1a1.67 1.67 0 0 1 .26.4c.22.64.6.57 1.16.42 1.33-.37 1.34-.33 1.82.77a4.67 4.67 0 0 1-2 1c-.69-.46-.79-.4-1 .56l-5.2 2.94-4.54 2.58-8.6 5c-2.29 1.33-4.59 2.67-6.86 4-8.1 4.89-16.24 9.72-24.15 14.92a25.84 25.84 0 0 1-5 2.26 1.75 1.75 0 0 1-2.28-1.14 2.73 2.73 0 0 1-.1-.48c-.46-2-.43-1.95 1.31-3 2.53-1.59 5-3.25 7.52-4.87.76-.5 1.55-1 2.32-1.43a2.41 2.41 0 0 0 2.82-1.53l2.88-1.8c.57 0 1.25.21 1.67-.2a16.63 16.63 0 0 1 2.9-1.83 1 1 0 0 0 .5-.8L28.44 23c.59.13 1.07.05 1.23-.63l.41-.28a8.28 8.28 0 0 0 1.22 0 1.34 1.34 0 0 0 1.3-1.48zm22.61-9.75c-.07-.13-.11-.28-.21-.35s-.28 0-.28.18.06.18.1.18a1.7 1.7 0 0 0 .39 0z" opacity=".85"/><path d="M73.43 1.14a2.49 2.49 0 0 1-1.22 2.05c-.87.38-1.32 1.23-2.15 1.6-.1-.47-.07-1.19-.63-1.2-.73 0-.38.72-.45 1.14a3.66 3.66 0 0 0 .06.73.29.29 0 0 1-.41.23c-.92-.34-1.07-1.12-1.2-1.95-.06-.35-.56-.56-.71-.22-.34.75-.67.66-1.18.21a2.35 2.35 0 0 0-.67-.27A73.27 73.27 0 0 1 72.24.07a.9.9 0 0 1 1.19 1.07zM63.52 4.2a2.27 2.27 0 0 0 .29.4c.24.23.53.49.85.24a1 1 0 0 0 .27-.63 3.21 3.21 0 0 0-.1-.74 1.33 1.33 0 0 0-1.31.73zm-2 1c.77.46.78.46 1-.64-.71-.47-.72.3-.98.66z" opacity=".6"/><path d="M68.63 5.69c-1.82 1.67-4.19 2.45-6.24 3.75-.75.46-1.58.78-2.38 1.17-.48-1.11-.49-1.15-1.82-.78-.56.15-.94.22-1.16-.42a1.43 1.43 0 0 0-.29-.41c-.66.89-1.92.23-2.64 1a2.82 2.82 0 0 1-.36.33c-.34.27-1.07-.25-1.14.56 0 .45.29.75.48 1.1a.42.42 0 0 1 0 .39c-.11.08-.37.13-.44.06a2.78 2.78 0 0 0-3.42-.44 5.16 5.16 0 0 1-1.68.11 1.45 1.45 0 0 1-.74 1.47c-1.68 1-3.29 2.15-5.3 2.41-.12 0-.26-.17-.39-.25l4.64-2.92a4.13 4.13 0 0 1 1.79-.72 23.27 23.27 0 0 1 3.1-1.85C54 8.85 57.06 7 60.35 5.5a5.89 5.89 0 0 1 1.19-.28c.77.46.78.46 1-.64l.94-.38a2.27 2.27 0 0 0 .29.4c.24.23.53.48.85.24a1 1 0 0 0 .27-.63 3.28 3.28 0 0 0-.1-.74 2.35 2.35 0 0 1 .67.27c.51.45.84.54 1.18-.21.15-.34.65-.13.71.22.21.82.36 1.6 1.28 1.94zM35 19.06a3.47 3.47 0 0 0 2.56-.52 1 1 0 0 0 .44-1.06 5.39 5.39 0 0 0-3 1.58zm-4.94 3h1.21a1.34 1.34 0 0 0 1.31-1.47c-.78.58-1.9.6-2.5 1.49zm-15.85 9.29a6.11 6.11 0 0 0-2.81 1.53 2.41 2.41 0 0 0 2.81-1.53zm2.88-1.8c.58 0 1.25.21 1.67-.21a17.57 17.57 0 0 1 2.91-1.83 1 1 0 0 0 .49-.8 10.52 10.52 0 0 0-5.07 2.84zm15.79-9.09c1.24 0 1.25 0 1.75-1.21-.88-.03-1.21.75-1.75 1.21zM28.43 23c.59.13 1.07.05 1.23-.64-.46.1-1.03 0-1.23.64zm28.62-10.85a1 1 0 0 0 1-.56c-.72-.46-.82-.4-1 .56zM38 17.47a.87.87 0 0 0 1.15-.47c-.49-.08-1-.17-1.15.47zM69.43 3.59c-.73 0-.38.72-.44 1.14a3.06 3.06 0 0 0 .05.73l1-.67c-.04-.47-.04-1.19-.61-1.2zm-14.71 7.1c0 .06.06.18.1.18a1.7 1.7 0 0 0 .39 0c-.07-.12-.11-.28-.21-.35s-.28-.02-.28.17z" opacity=".7"/></svg>