<svg xmlns="http://www.w3.org/2000/svg" viewBox="0 0 71.88 419.97"><path d="M26.48 232.72c4.31 3.35 2.46 29.72 2.66 36.62.15 5.18 2.59 34.33-.34 37.19-1.42 1.39-1.59-32.62-1.75-36-.54-10.53-4.25-28.15-.57-37.81zm.16 86.5c4.36-3.67 2.88 4.32 2.8 11.32-.05 4.08-.22 19.23-2.54 20.59-1-6.07.55-11.42.48-16.93-.06-4.61-.67-10.03-.74-14.98zm2.8 38.27c-.9 4.6 2.11 20.12-1.35 22.89-2.64 2.13-3.9-23.61 1.35-22.89zM26.63 201.3c3.1.72 1.34 24.24-.15 28.32-2.39-8.4-.38-19.62.15-28.32zm27.96 127.78v51.19c-2.79-5.44-1.2-18.82-1.18-25.4 0-5.9-1.89-26.09 1.14-29.09zM66.18 199.7c-1.33-3.88-1.08-19.12 0-23.46zm-39.63-18.23c3.65.26 1.63 10.89-.06 13.06zm41.37 23.77c1.06 2.36.39 4.11.21 5.9a6.82 6.82 0 0 1-.21-5.9zm-31.3 15.92c.1-23.8-1.28-47.23-1.13-71.47 3.93.43 2 27.34 2 32.22q0 9.45-.05 18.89c.03 4.36 1.38 16.84-.82 20.36zm14.56 162.08a37.17 37.17 0 0 1-1.8 17.34c0-10.18.81-21.51-.05-31.62-.06-.71-1.3-8.3-1.31-8 0-2 1.6-4.81 1.43-6.8 3.34 4.72.32 22.24 1.73 29.08zm.1-46.85c-2.09 3.65.72 11.14-1.92 14 0-9.33-.22-18.83 1.43-27.87 1.65 2.25.57 10.97.49 13.87zm-.73-42.27c2.4 1.8.87 19 .41 23.49-.96-7.73-.59-15.67-.41-23.49zM46.32 372c.32 5.54.61 9.25-.32 13.09-2.09-4.37-2.09-4.44.32-13.09z" fill="#fa194a" opacity=".65" style="isolation:isolate"></path><path d="M50.55 294.12c-.5-22.57-1.21-45.35-1.14-68 0-11 .14-22 .51-33 .31-8.9-1.11-22.69 1.27-30.77 1.16 22.54-.38 45.79-.78 68.35-.21 11.74 0 23.46.4 35.18.1 2.99 1.09 29.26-.26 28.24zm-22.87 63.13l-.87 4.39c-.14-.92-.74-10.63.11-10.81.26 2.17.52 4.26.76 6.42zm-1.03-26.05a6.26 6.26 0 0 1 0 6q-.01-3.01 0-6zm9.17 47.51c-2.61-10.14-1-26.25-1.11-37.17-.12-12.18 1.69-23.4 2.07-35.33 1.15 13.62-.06 26.89.17 40.45.12 7.69 2.18 26.34-1.13 32.05zM37 293.58c-2.39-32.28-1.9-62.5-1.31-93.66 2.2 3.32 1 12.52 1 16.93-.07 8.57-.31 17.11-.23 25.68.12 17.12.97 33.91.54 51.05zm9.21-119.04c-.49 19.46.58 39-1 60.11-1.21-12.8-.59-53.27 1-60.11zm4.97 208.7c-1.77-8.58-.12-17.91-.86-26.72-.38-4.62-1.47-15.9 1-20.13l-.14 46.85zm2.58-200.61c.36.89 1.1 2.94.1 3.79a6.07 6.07 0 0 1-.1-3.79z" fill="#fa194a" opacity=".35" style="isolation:isolate"></path><path d="M35.45 134.71c.2-9.74-1-19.59.67-29.16 3.36 2.68 1.31 22.18 1.36 27.41 0 1.58-.64 8.94 1.06 9.47s2.84-4.23 4.39-3.16c-.14 2.5-1.57 12.06 1.26 10.76 2.54-1.18 1-11.47.57-14.12 8.77 1.53 7.16 14.33 6.43 26.45-.92 15.39-1.37 31.37-1.61 47.08-.28 18.28-.06 36.39.6 54.64.64 17.47-1.26 36.37.78 53.53 1.88-18.47.22-38.17-.31-56.74-.59-20.72.11-41.27.48-62 .12-7.1-2.18-44.65 4.31-44.14s.33 33.21.35 39.29c0 2.62 1.51 5.89 1.68 9 .23 4.22-.21 8.76-.27 13-.12 9-.45 18.22-.4 27.21.05 8.21 1 14.39.66 22.7a203 203 0 0 0 .32 23.53 158.13 158.13 0 0 1-.16 23.34c-.18 2.94.4 8-.53 10.72s-2.69 1.62-3.54 4.53c-1.74 5.94-.13 20.26-.14 26.79s-1.66 19.86 1.18 25.4v-51.16c5.59-.38 2.33 56.53 3.1 65.23.45 5.05.18 8.17 3.14 8.28 1.39.05 2.84-1.17 3.65-3 2.84-6.29-1.3-18 2-23.54 3.72 7.78.43 18.73 4 26.63v-58.34c0-4.42-1.24-14.78.88-18.51-.06 16.49.08 33 0 49.47 0 10.91 1.84 32.27-1.39 41-2.77 7.47-12.62 1.53-17.92-.19-3.51-1.15-7.09-4.22-10.62-4.55-3.15-.3-4.13 3.83-5.44-3-.19.36-6.44 4.09-6.15 4.58-3-5.13-7-2-10.78-3-2.11-.59-4.95-3.18-7-3-1.08.09-2.4 2-3.11 2-1.29.09-1.74-.06-3.62-1.53-2.61-2-2.08.26-2.75-5.1-.75-6 .48-13.24.8-19.21.72-13.61-.26-27.25.37-40.88 4.66 3.39 2.73 17.67 2.89 24.51.18 8.23-.72 16.48 4 21.7 3.81 4.26 10.84 6 14.17-.49a32.94 32.94 0 0 0 1.06-5c.11-2.35.87-3.27 2.26-2.77 1.15-3.52 1.36-5.23 1.38-9.7 7.54 2.59-2.51 20.11 2.08 24.47 3.27 3.11 2.73-9.06 2.9-10.63.58-5.08 2-7.1 2.44-12.53 1.27-13.91.19-29.09.5-43.15A139.46 139.46 0 0 0 36.24 305c-.37-2.46-1.25-3.61-1-6.66.14-1.84 1-3.62 1.08-4.43 1.5-13.66.56-29.47.23-44.3-.34-15.09.9-29.3.94-44.12 0-15.63.7-31.66.11-47.24-.07-1.59.27-4.29-.11-5.75-.74-2.8-1.79-1.8-2.38-4.34-1.11-4.62.37-9.41.34-13.45zm15.83 201.68c.09-3 1.26-11.48-.49-13.84-1.37 7.52-1.46 15.42-1.45 23.22 0 3.61-.15 6.89-.27 10.33 0 1.38-1.3 2.32-1.3 4 0 1.35 1.45 4.53 1.65 6.13.36 2.87-.05 6.49 0 9.45v24.85c3.26-8.62 1.81-19.42 1.83-29.05zm-5.07-161.85c-1.59 6.84-2.17 47.31-1 60.11 1.58-21.12.51-40.65 1-60.11zM46.32 372c-2.41 8.69-2.41 8.76-.32 13.09.93-3.88.64-7.59.32-13.09zm7.44-189.33a6.07 6.07 0 0 0 .1 3.79c1-.9.26-2.95-.1-3.84z" fill="#fa194a"></path><path d="M4.49 11.79C4.27 19.61 1 27.2 2.4 35.64c.5 3 1.73 4.7 2 8 .2 2.48-.68 6.4-.69 8.86 0 4 1 7.78 1.16 11.64.12 3.28-.65 5.7-.61 9.23A126.44 126.44 0 0 0 5.9 91.9c.64 3.47 2.1 3.47 2.1 7.63.07 4.71-2.12 10.53-2.34 15.58-.41 9.26.94 18.81.78 28.22-.05 3.07-.57 7.13-.37 10 .36 5.42 1.76 9.54 1.43 15.33-.4 6.79-2 15.26-1.86 21.86.08 2.75 1.77 6.13 2 9 .38 4.57-.5 7.18-1.35 11.21-1.83 8.59-1.5 14.78.2 23.38.3 1.52 1.83 7.19 2 8.42.64 5.55-1 3.84-1.87 7.68-.57 2.49-1.22 14.7-.83 17.43.18 1.25 2 3.1 2.3 5.36.22 1.39-.23 5-.24 6.56-.07 8.51.85 17.41.73 25.75-.08 4-1.52 7.53-1.58 11.7 0 4.43 1.51 8.2 1.56 12.34 0 3.19-1.75 10-4.77 9.83-.86-67.18-.24-134.33-.34-201.52 0-16.34.38-32.74-.29-49C2.47 71.92.8 55.35.42 38.62.26 31.46-1.41 5 3.23 1.16 6-1.15 7.36 4.75 9.21 4.89s.45-3.28 2.24-3.24a21.58 21.58 0 0 1 3.61 3.28C12.81 6.8 10.79 9.8 8.37 11a5.27 5.27 0 0 1-3.87.75c.09-1.5-.31-2.34-1.21-2.52-1.29.16 1.12 2.54 1.2 2.56zm30.13 215.47c1.86 2.59 1.26 5.2 0 7.82.01-2.61 0-5.21 0-7.82z" fill="#fa194a"></path><path d="M9.21 4.89C12.37 4.31 8.87 2 7.5 2c0 1.87.57 2.85 1.71 2.89z" fill="#fa194a" opacity=".85" style="isolation:isolate"></path><path d="M3.76 342.47c0 .6 2.53 5.27 2.76 7.72.48 5.12 0 11.5.13 16.79.24 10.37-.56 18.7 6.06 23.34 4.42 3.1 10 3.32 12.59-4.12 2-5.8.6-13.33.91-19.85.45-9.74.34-19.29.39-29.18 0-2.4-.12-25.6 2.74-19 2.78 6.4-1.78 20.06-.88 27.2.57 4.51 2.2 3.3 2.82 7 .14.86-1.81 4.94-1.84 5.16a33 33 0 0 0 0 9.62c.07.39-.14 3.09 0 3.57.57 1.68 2.35 1.37 2.9 3.75a18.78 18.78 0 0 1 .12 3c.21 2.45-3.86 17.6-.35 17.72 5.35.17 2.46-53.54 2.55-60.86.1-8.19 2.3-16.76 2.08-24.68a36.17 36.17 0 0 0-.4-4.07c-.3-2.82-1.19-3-1.13-6.51 0-2.61.91-3.73 1.06-5.09 2.06-17.75-1.57-41.52-1.67-60.83-.1-21.23.72-42.51.74-64 0-9.6-.57-19.32-.26-28.44.36-10.18-.87-24.18 1-35.12 3.36 2.68 1.31 22.18 1.36 27.41 0 1.58-.64 8.94 1.06 9.47s2.84-4.23 4.39-3.16c-.14 2.5-1.57 12.06 1.26 10.76 2.54-1.18 1-11.47.57-14.12 10 1.74 5.89 16.18 6.55 28.77 1.93-1.9.41-4 1.17-5.94 1.53-3.91 4.26-6.66 5.79 0 1 4.18-.66 17-.76 22-.07 3.39-1.12 6.49-1.28 9.35a31.79 31.79 0 0 0 .42 6.75c1.55 15 .07 31 .15 46.46 0 6.58 1.09 12.1.88 18.58-.26 7.86-.63 16.33-.23 24.19.59 11.53 2 25.62-.22 37-1 5.12-3.59-.39-2.64 6.06a10.11 10.11 0 0 1 2.77 3.58c1.55 5.76.1 19.07.11 25.59 0 10.14-.32 20.42 0 30.54a53.3 53.3 0 0 0 .7 9.09c.91 4.43.15 4.62 2.71 4.71 8 .29 2.3-20.84 5.61-26.5 3.72 7.78.43 18.73 4 26.63 0-21.08.15-42.17 0-63.25-.1-18 1.26-36 .91-54.48-.88-45.61.12-91.08.13-136.7 0-21.57.45-43.21-.7-64.73-.6-11.22-1.57-22.39-1.93-33.65-.34-10.66 1.63-23.79.24-34-.39-2.86-1.13-7.55-3-8.73-2.54-1.71-2.1 2-3.65 2-2.5-.09-5.58-5.5-8-6.17-4-1.1-5.2 4.09-8.83 3.51-.76-.12-1.9.73-2.32.17-.93-1.25-.17-6-1.43-6.61-1.59 3.11-3.43 5.63-4.76 9.1.26-8.7-6.32-6.49-9.84-6.88-2.94-.39-14.39-4.67-15.82-.74.62 2.47 2.61 1.43 3.61 3.28C12.81 6.8 10.79 9.8 8.37 11a5.27 5.27 0 0 1-3.87.75c.09-1.5-.31-2.34-1.21-2.52-.31 0 1.25 4.15 1.27 5.19.06 3.28-1.58 6.5-2 9.79C1.54 33 4.23 38.33 4.18 46.36c0 6.64.8 12.89 1 19.36.17 6.78-.48 14.28.41 21.55C6 90.73 7 91.93 7.63 95c.93 4.66-.66 8.47-1.33 13.37-1.26 9.29-.19 18.65-.07 28 .06 5.15-.6 11.3-.34 16.19.17 3.07 1.38 6.29 1.62 9.46.69 9-2 18.14-1.86 26.69.14 8.75 2.66 12.42.64 22-1.73 8.21-1.18 12.28.14 20.53 0 1.92.08 3.83.14 5.74a20.11 20.11 0 0 0 1.89 5.53c.6 5-.92 3.56-1.87 7.68-.77 3.36-1.33 14-.83 17.43.18 1.25 2 3.09 2.3 5.36.27 1.73-.22 4.64-.24 6.56-.07 8.51.85 17.4.73 25.75C8.49 310 6.92 314 7.1 319c.14 3.77 2.18 9 1.9 12.39-.36 4.33-6.45 6.48-5.24 11.08zm64.37-131.33a6.82 6.82 0 0 1-.21-5.9c1.08 2.36.39 4.11.21 5.9zm-1.95-11.44c-1.33-3.88-1.08-19.12 0-23.46zm-39.63-18.23c3.62.26 1.86 10.6-.06 13.06zm1.54 124.89c-2.71-4.06-.88-23.12-.91-28.6-.07-10.1-1.74-19.74-1.74-29.82 0-7.63 1-14.34.35-21.49-.72-8.51.32-16.63.84-25.15 3.6.84.26 22.45.44 27a3.71 3.71 0 0 0-.59 2.91c-.24 1.56.16 2.59 1.21 3.09.39 4.62.77 9.09.86 14 .21 10.94.7 21.86.88 32.8.05 2.53-.34 26.76-1.34 25.26zM70.56 414c-1.16.85-1.14 1.93-.22 3.17a4.93 4.93 0 0 0 .22-3.17z" fill="#fa194a" opacity=".85" style="isolation:isolate"></path></svg>