<svg xmlns="http://www.w3.org/2000/svg" viewBox="0 0 67.28 342.44"><path d="M6.11 163.53c2.24 2.74.69 11.63.67 15.3 0 6.33.31 12.53.66 18.83.69 12.49-.16 25.07.53 37.53.26 4.54 1.29 8.84.82 13.43-.37 3.62-1.54 6.39-1.84 10-1 11.3 2.59 25.3-.19 36.3-1.66-.86-.71-3.59-1.7-5v39.82c-2.26-13.49-.61-29.48-1.06-43.3-.49-14.68-1-29.36-1.27-44C2.1 212.15 1 181.92.48 151.69 0 122.76-.23 93.81.32 64.92.6 50.36.81 35.8 2 21.34 2.78 12 1.88 1.62 10.79.89 9 6 7.06 9.45 7.39 15.72c.13 2.53 1.81 12.66-.45 13-.13-1.9-.25-3.8-.38-5.8.1 6.49-.73 12.91-1.16 19.36-.41 6.19.17 12.57-.85 18.64-.39 2.33-1.33 4.28-1.32 6.72 0 1.85 1.16 4 1 5.68C4 75.92 2.18 77 2 79.73c-.2 2.3 1 4.8 1.23 7 2-1 1.25-3.19 2.66-4.65C6 96.92 4.36 111.34 5 125.92c.31 6.67.13 13.41.09 20.09 0 3.34-.89 18.22.68 20zm-.64 89.27a2.41 2.41 0 0 0-.07 2.74 2.48 2.48 0 0 0 .07-2.74z" fill="#ee274e" opacity=".65" style="isolation:isolate"></path><path d="M8.37 259.26a2.46 2.46 0 0 1-.07 3.11 2.43 2.43 0 0 1 .07-3.11zM5.82 77.44c-.53-1.72-1.48-3.43-.07-5.19.02 1.75.05 3.46.07 5.19z" fill="#ee274e" opacity=".65" style="isolation:isolate"></path><path d="M7.65 17.32C6.16 12.1 8.31 7.09 9.54 2.21 10.61 5.61 8.5 14 7.65 17.32zm2.15 185.2c-3.21-3.85-.61-21.3-1-27-.63-10.46-.89-20.79-.93-31.29s0-21 .06-31.56c0-4.86-.37-10.08.09-14.91.14-1.44.86-8.79 1.87-9.55 1.74 3.28.86 8.77.86 12.47 0 5.46.07 10.92.09 16.38q.08 15.48.15 31c.06 9.55.11 19.09.51 28.63.2 4.76 1.3 11.08.2 15.67-.83 3.64-1.86 4.99-1.9 10.16zM5.84 82.11c-1.41 1.46-.68 3.63-2.66 4.65-.27-2.15-1.42-4.82-1.23-7s1.7-3.37 2-5.45-.59-3.45-.71-5.42c-.18-3.18.75-4.9 1.31-8 1-5.51.42-11.3.72-16.9.39-7 1.4-14 1.29-21.11.72 11-.11 22-.57 33-.3 9.12-.18 17.5-.15 26.23zM12 293.48c2.34-.76 1.72-8.56 1.85-10.83 1.18 7.33.74 14.85.86 22.27.1 6.13 2.17 16.27-1.42 21.18A214.17 214.17 0 0 1 12 293.48zM5.76 159.6c-1.59-8.67-.55-18.26-.64-27.1-.09-8.32-1.64-16.4.65-24.44 1.23 16.86.13 34.6-.01 51.54zm4.16-89.48c-.11-7.68-3.72-19.06.76-25.52.54 2.32.94 25.47-.76 25.52zm-3.81 93.41l-.32 2.39c-.72-.78-.79-3.73.32-2.39z" fill="#ee274e" opacity=".35" style="isolation:isolate"></path><path d="M19.35 317.35c1 2.54 1.62 7.44 3.84 8.88 2 1.3 6.15-.17 8.46.38 6.54 1.56 14.08 3.61 20.79 3 1.48-.13 2.37-1.4 3.8-1.23.64.08 1.66 1.67 2.42 1.91 2.62.83 4.47.47 5.75-2.77 2.52-6.38-3.38-21.85 1.11-26.6 1.14 12.13 3.46 29.75-.29 41.52a2.81 2.81 0 0 1-1.32-1.8 1.35 1.35 0 0 0-1.72-.83 1.43 1.43 0 0 0-.56.38c-1.82-.6-5 .63-6.77-.19.82.37-5.1-2.73-1.85-1.74-1.93-.59-3.4-.34-5.37-.65-5.09-.83-10.24-1.78-15.36-2.66-4.53-.77-11.38 1.71-13.25-5.17-3.48 3.66-3.24.13-6.55-.11-1.86-.14-2.17 2.1-4.27 1.92s-2.65-2-3.15-3.68c-1.35-4.58 0-13 0-17.94v-20.05c1 1.45 0 4.18 1.7 5 2.53-10 .08-24.15.2-34.56 0-4.38 1.22-6.61 1.8-10.72.7-4.84-.52-9.65-.79-14.45-1.3-23.22.91-47.46-1.45-70.42C4.27 142.92 6 119.24 6 96.92 6 88.84 4.25 29 7.78 28.61 8 31 7.5 33.61 8.46 36A101.7 101.7 0 0 0 8 22.77c-.38-3.07-1.22-10 .85-12.28-.39 7.43 2.55 13.43 2.94 20.59.49 8.87 0 18 0 26.9 2.23-1.61 2-30.68 3.56-29.83 3.24 1.74.54 12.48.45 15.18-.26 7.49-.53 14.87-.31 22.37.4 14-.63 28.61.43 42.53.36 4.72-.95 10.19-.17 14.81.45 2.75 5.39 9.12-.12 10.2-2.9-15.9-.9-34.81-1-51 0-6.38.85-13.21-1.69-18.38-3-6.07-.61-12.13-2.27-19.22C8.34 48 8.26 53.29 8 57.21c-.27 5.34-.23 10.71-.35 16.09-.27 12.54.44 25 .35 37.54-.17 24.4 1 48.73 1.11 73.07.05 22.59 1.85 45.19 1.81 68 0 12.15.54 24.3.92 36.44.39 12.66-.12 25.15 1.45 37.74 3.74-5.11 1.47-16.52 1.41-22.78-.09-8.19-.63-16.22-.92-24.37-.67-18.46-.6-37-1.13-55.44q-1.58-55-1.76-110.06c0-7.9.27-16-.51-23.78-.35-4.09-.5-8.2-.44-12.3 0-1.8-.37-5.33 0-7.25.12-.61 1.4.2 1.7-.44.13-.27 1.66-7 2.33-1.38.28 2.39-1.09 6.93-1.19 9.38-.38 8.79 0 17.73.07 26.53.33 35.11 1 70.14 1.66 105.13.37 18.79 2.24 38 1.42 56.75-.44 10.2.87 20.24 1.26 30.41.19 5.61-2.47 17.11 2.16 20.86zm-11-58.09a2.43 2.43 0 0 0-.07 3.11 2.44 2.44 0 0 0 .09-3.11zm56.54 76.83c-.15.22-.72 2.6.08 2.68s.19-2.4-.06-2.68z" fill="#ee274e"></path><path d="M18.4 275.38c-2.36-13-.8-28.07-.74-41.3 3.14.52 2.32 3.93 2 6.51-.58 5.34-1.27 9.78-.76 15.24.39 4.25-.29 7.8-.18 11.83.13 2.82 3.47 7.26-.32 7.72zm.93 30.54c-1.18-8.88-.69-17.91-.73-26.87 1.69.22 3.12 24.5.73 26.87zm-2.76-109.2c-3-2.94-.82-21-.83-25.81 2.26 8.33 1.03 17.16.83 25.81zm-1.12-39.06a63.73 63.73 0 0 1 .12-20.07c.26 3.51 2.16 18.33-.12 20.07zm1.94 58.42c-1.38-5.26-.9-10.65-.71-16 1.92 5.2.8 10.64.71 16z" fill="#ee274e"></path><path d="M17.64 224.38c0-1.45-2.36-10.25 1.23-8 1.58.94-.42 7.05-1.23 8zm1.75 88.67a19 19 0 0 1 .11-6.05c2.82 3 2.8 4.31-.11 6.05zM15 23.42c-.88-.14-1-.63-.46-1.47.86.14 1.02.63.46 1.47zm-3.21 42.99c-1.29.4-1.57-.4-.82-2.41a3 3 0 0 1 .82 2.41z" fill="#ee274e"></path><path d="M8 22.77c-.11 3.75-1 9.67.51 13.2-.03-4.4 1.26-9.05-.51-13.2zm2.79 39.41c0 1 .78 4.44 1.66 4.16 2.81-.89-1.44-5.52-1.44-6a8.73 8.73 0 0 0-.22 1.84zm54.52 276.19a1.77 1.77 0 0 0-.4-2.28c-.64.96.09 3.38.4 2.28zM10.69 69.92c1.37 1.39 1.09-2.55 1.1-3.46-1.66-.09-1.38 1.64-1.1 3.46z" fill="#ee274e" opacity=".85" style="isolation:isolate"></path><path d="M29 .78c-2.85 1.3-5.3-.64-8.15 0-2.2.52-3.48 2.67-5.82 2.55-2.16-.12-1.56-3.78-4.37-2.1-1.49.89-.93 3.54-1.06 5.47-.23 3.41-1 6.21-.57 9.8.45 4 2.23 7.32 2.75 11.22 1.26 9.54.06 20.55.06 30.21 1.94-1.4 1.29-11 1.65-13.74.22-1.54.06-14.75.6-15.32 2.56-2.75 2.64 3.6 2.62 5.46-.05 5.58-1 11.53-1.2 17.21-.46 12.73.5 25.51.44 38.25 0 5.45-.61 11.52-.08 16.9.5 5-.19 8.78-.11 13.74.06 3.45 2.65 6.24 2.58 9.07a8 8 0 0 1-.89 2.62 1.93 1.93 0 0 0-2 1.86 2.81 2.81 0 0 0 0 .29 4.61 4.61 0 0 0 .16 3.27c-.49 4.65.33 10.16.51 14.85s-1.16 7.38-.62 12.39c0 .27 1.53-.11 1.57.87s-1.55 1.77-1.56 1.67c.31 4.71 1.78 9.11 1.65 14-.33 11.75 1 23.21.22 34.79 4.66-.7-.61 11.59 0 14.7.86 4.53 2.75 4.44 2.38 9.75s-1.27 9.74-.76 15.24c.4 4.33-.29 7.8-.18 11.83.09 3.07 1.34 4.75 1 7.29 0 .34-1.36 1.18-1.34 3.18 0 1.46 1.26 2 1.59 3.77s-.47 5.8-.45 7.3c0 3.56 1.35 7.48 1.14 10.89-.12 2-1.58 5.12-1.5 6.4.13 2 2.29 2.43 2.14 4.84-.05.77-1.9 1.4-2 1.72a14.09 14.09 0 0 0 0 4.3c.15 2.19 2.1 7.75 3.84 8.88 2 1.3 5.32-.27 7.45 0 3.29.48 6.4 2.09 9.81 2.39 3 .26 5.95.37 8.91.65 1.6.15 3.81-.59 5.11-.45a17.78 17.78 0 0 1 3.38.92c6.57 1.76 7-2.57 6.88-10.28-.14-10.06 1-19.29.6-29.11-.87-21.52-1.13-43.06-1.77-64.6-1.29-43.54-1.66-87-2.57-130.57-.53-25.12-.12-50.47 1.68-75.51C63.39 10.2 67 .18 56.14.12c-1.79 0-2.9 1.29-4.53 1.31S48.1.62 46.32.52c-3.41-.2-8-.33-9.92 4C34.86 0 32.62-.89 29 .78zM15.09 22.2c.48.28 0 .85-.11 1.22a.77.77 0 0 1-.78-.42c-.28-.94.57-1 .89-.8zm21.2-17.46c-.2.86 0 1.92-.82 2.52.25-.88-1.34-2.8.82-2.52z" fill="#ee274e" opacity=".85" style="isolation:isolate"></path></svg>