<svg xmlns="http://www.w3.org/2000/svg" viewBox="0 0 70.45 352.96"><path d="M10 233.94c-2.36-4-2-6.16-1.74-11.1.24-4.35-.51-5-1-9a117.14 117.14 0 0 1-.76-25c.65-.9 4 5.29 2.57-4.23-.89-5.8-4-7.86-3.82-14.75.17-7.2 1.86-9.3.51-16.25A98.31 98.31 0 0 1 4 133.72c0-4.95-.19-10.73.44-15.45.9-6.85 2.71-11 2-18.75-.77-8.27-1.82-16.2-2-24.6-.13-4.92 1.88-21.09-.64-25-3.65 51 .2 102.43 1.88 153.27.85 25.41 2.08 50.81 2.7 76.25q.45 18.82-.22 37.66c-.23 6.52-3 29.31 1.29 33.09.43-5.18-.68-10.59-.71-15.81 0-6.41.32-12.87.56-19.29.25-7.14.52-14.29.4-21.44 0-2.54-.66-6.12-.32-8.57.27-1.91 1.62-.65 1.47-2.92s-1.25-1.32-1.46-3.22c-.27-2.44.3-4.58.46-7.13.38-6.14-.35-11.19-1.09-17.14C7.7 246.19 10 242.43 10 233.94zm1.32 117.43c-.12-.66-.4-.9-.85-.76zm5.83-86.91c-3.63.17-1.33 17.12-1.32 22 3.73-5.35 1.79-14.52 1.32-22z" fill="#fa194a" opacity=".65" style="isolation:isolate"></path><path d="M8.76 251.39A1.57 1.57 0 0 0 9.5 250c-.98-.59-.5.83-.74 1.39z" fill="#fa194a" opacity=".65" style="isolation:isolate"></path><path d="M.49 57.85c1.69-7 .38-14.57.52-21.79.13-6.09 2.69-15.43.65-21C-.1 20.19.37 28.42.21 33.94a214.3 214.3 0 0 0 .28 23.91zm13.14 17.57c-.93-5-.17-10.34-.59-15.43-2.13 7.58-2 14.26-2 22.23C11 89.9 10 97.37 9.81 105c-.55 16.37-.16 32.79.79 49.06s2 32.86 2.18 49.29q.17 11 .57 22c.22 6.11-.87 19.35 1.34 24.64 1.8-5.45 2.14-9.93 2.08-16.78 0-3.89-.22-8.13-.26-12.2-.17-16.28-1.13-32.8-1.86-49.11-1.41-32.23-2.54-64.18-1.02-96.48zM21 228.09c-.27-27.81-1.84-55.43-3.07-83.14-.58-13.29-.11-26.63-.15-39.95 0-14.88 1.43-30.65-.33-45.32-3 31.15-2 63.46-.8 94.63.61 16.49 1.35 33 1.79 49.48.09 4.57-.44 24.93 2.56 24.3zm-2 3.13c1.14 7.29-.31 15 1.49 22.14 1.32-3.11 1.43-6.68 1.38-10.22-.02-1.92-.93-16.83-2.87-11.92zm-3.76 30.72c1.39-4.13 1.42-8.08-.52-11.78a37.28 37.28 0 0 0 .52 11.78z" fill="#fa194a" opacity=".35" style="isolation:isolate"></path><path d="M10 233.94c3-5.94.76-12 .85-18.45 0-3.22 1.85-6.61 1.85-9.24 0-4.64-1.26-1.64-1.36-4.21.08-1.12.51-1.65 1.28-1.59v-4.36c.41-4.11-.4-8.84-.58-13-.4-9-.76-18-1.3-27-1-16.38-1.25-32.63-.95-49.11.21-7.66 1.21-15.2 1.27-22.91.06-8.59-.33-15.85 2-24.08.42 5.09-.34 10.44.59 15.43 1.17-16-2.27-33.16.63-48.88 1.18-6.44 2.79-3.53 7-5.31 5.53-2.32 9.74-1.78 15.58-2a153.22 153.22 0 0 0 17.49-2c2.17-.35 5.12-.55 7-2.45 3.06-3.1 1.39-2.88 1.29-6.47 0 1.4-1.43-7.61 0-5.29-1.57-2.58-3-1.15-5.24-.47-4.5 1.34-9.23 4.78-13.8 5-5.57.24-10.85 0-16.52.87-1.87.28-3.76.92-5.61 1.14-1.37.16-3.8-1-4.6-.68-1.46.51-2.49 3.1-4.21 3.71s-3.56-1.11-5.17-.53c-4.17 1.5-3.33 7.44-3.63 13.46a186.08 186.08 0 0 0 .3 25.65c.73 8.29 0 17.36.3 26 .27 8.16 1.5 15.93 2.1 24 .57 7.73-1.48 12.26-2.42 19.29s-.18 16.48.08 23.75c.31 7.73 2.79 11.84 1.74 19.42-1 7.17-.69 10.75 1.51 17.19 1.24 3.65 2.17 5.72 1.06 9.9-.24.9-1.7-2.58-2.18-1.91-.78 7.43-.2 17.87.76 25 .54 4 1.29 4.64 1 9-.11 4.98-.48 7.13 1.89 11.13zm.79 49.52c-2.33.76-1.64 34.78-1.81 40.21-.23 7.21-2.72 30.44 5.26 28.3-2.34-12.31-4.08-21.18-2.85-34.41.61-6.69-.26-13 .21-19.67.31-4.34 2.94-11.78-.81-14.43zm8.41 67.62c-.32-4.91-2.56-.87-4 .83a4.08 4.08 0 0 0 4-.83zM8.76 251.39c0 5.56 1.34 10.67 1.28 16.31 0 3.32-2.38 12.15.87 13.15 1-7.84 2.85-11.74 1.73-20.06-.8-6-.66-12.56-2.66-18.05-2.58 2.29-2.15 5-1.19 8.7.32-.62-.38-2.1.71-1.44a1.57 1.57 0 0 1-.74 1.39z" fill="#fa194a"></path><path d="M16.83 55.7c1.55-1.37 2.89-14.63 2.22-17-.88-3.12-2.07.51-2.32.92-1.29 2.08-.28 13.52.1 16.08zM19 231.22c.47-1 1.08-1.28 1.83-.86.61-1.72.44-2.54-.53-2.44 0 1-1.88-6-1.84-6-1.21 1.33 1.05 5.08-1.92 3.41 0 2.6-.82 5.4.26 7.8.47-1.3 1.2-1.95 2.2-1.91zm-1.24 52.45c-2.28 3.25-2.44 5-.17 8.7 1.77-3.1-.59-5.59.17-8.7zm.8-72.92c0-3.17-1-3.72-2.65-5.83a23.76 23.76 0 0 0 .3 7.8c.54-1.32 1.32-1.98 2.35-1.97zM41.71 25.1c-.88.14-1.05.72-.5 1.74.88-.15 1.04-.72.5-1.74zM15.82 276.37l-.7-1.59zm.69-53.98a1 1 0 0 0 .1-1.33l-.1-.09zm2.13-10.58c.12.59.23 1.18.34 1.77z" fill="#fa194a"></path><path d="M67.15 201.15c.45 22 1.62 44 2.59 65.94.92 21-.33 41.67-.25 62.62 0 5.26 2.52 17.32-.62 20.88-3.74 4.25-13.7 1.24-17.9 1.22-5.66 0-11.7 1.75-17.23.94-2.91-.42-5.91-.32-8.83-.81-2.36-.4-3.28-1.79-5.71-.86-.4-6.08-2.46 1-4 .83s-2.35-5.26-2.88-7.51c-2-8.26-1.86-16.36-1.15-25a140.69 140.69 0 0 0 .3-15.09c-.07-4.84 1.58-10.62 1.28-15.11-.19-2.73-1.69-3.84-2-5.72-.4-2.46.39-6 .86-8.26 1.11-5.35 2.3-6.81 1.36-12.8-.47-3-1.07-5-1.35-8.1-.17-2 .14-4-.16-6-1-7-1.38-9.62-.45-17.22 1-8.13-1.9-17.53 1.64-24.79.57 15.69.9 31.77 1.85 47.2.38 6.11.57 11.76.68 17.91.09 5.81-.46 16.41 2.37 21 1.06-1.85.91-9.49.84-11.95s-1.15-5.29-1.33-7.87c-.22-3.22.09-6.71.11-10 0-4.88-3.07-31.2 1.79-31.37 1.14 7.29-.31 15 1.49 22.14 1.89-4.45 1.45-9.93 1.12-14.83-.51-7.5-.66-14.66-.79-22.23-.28-16.47-1.24-32.81-1.87-49.24-.67-17.25-1.4-34.23-1.25-51.55.15-18 1.85-38.11-.28-55.83-4.73 48.86-.54 99.37 1.13 148.19-4.76.63-3.33-23-3.5-27.2-.55-13.79-1.43-27.54-1.81-41.34-.4-14.26-.61-28.62-.53-42.9.07-13.87 2-27.4.78-41.17-.54-5.88.12-11.62.29-17.68.08-3-.49-13.22.91-15 1.08-1.41 5.72-1.23 7.33-1.9a21.72 21.72 0 0 1 10.66-1.55c7.66.44 19.39.75 26.71-3.15 1.21-.64 3.51-1.51 4-3.71.65-2.67-1.15-2.66-1.25-4.72-.1-2.22.57-7.62 3.58-7.56 2.73 15 0 34.59-.47 50.1-.46 16.68-1.07 33.39-1.16 50.07-.05 33.77 2.42 67.27 3.1 100.98zM42 26.3c.26-.89-.65-2.07-1.07-.66.07 1.36.37 1.59 1.07.66zM18.33 51.94c.28-2.43 1.54-14.49-.43-14.19-2.53.38-1.4 15.7-1.07 17.91a4.55 4.55 0 0 0 1.5-3.72z" fill="#fa194a" opacity=".85" style="isolation:isolate"></path><path d="M11.33 202.05c-.16-1.92 1.22-2.35 1.48 1.31-.72.12-1.22-.36-1.48-1.31zm5.21 23.32c0-3.26-.73-17.72 2.1-13.56 1.99 2.92-.03 14.73-2.1 13.56z" fill="#fa194a" opacity=".85" style="isolation:isolate"></path></svg>