<svg xmlns="http://www.w3.org/2000/svg" viewBox="0 0 70.48 353.04"><path d="M10 234c-2.36-4-2-6.15-1.73-11.09.24-4.36-.52-5-1-9a118.23 118.23 0 0 1-.77-25.06c.65-.9 4 5.29 2.58-4.23-.89-5.79-4-7.86-3.82-14.74.16-7.2 1.85-9.31.51-16.25A98 98 0 0 1 4 133.79c0-5-.18-10.73.44-15.45.91-6.86 2.72-11 2-18.76-.76-8.26-1.81-16.19-2-24.6-.12-4.91 1.89-21.09-.64-25C.19 101 4 152.4 5.72 203.25c.84 25.41 2.08 50.82 2.69 76.24q.46 18.84-.21 37.67c-.23 6.52-3 29.31 1.28 33.09.43-5.18-.67-10.59-.71-15.81 0-6.42.33-12.88.56-19.29.26-7.14.52-14.3.41-21.44 0-2.54-.67-6.12-.32-8.58.27-1.9 1.61-.64 1.47-2.92s-1.25-1.31-1.47-3.27c-.27-2.43.3-4.57.46-7.12.39-6.14-.35-11.19-1.09-17.14C7.7 246.27 10 242.51 10 234zm1.32 117.45c-.11-.66-.4-.91-.84-.77zm5.87-86.91c-3.64.17-1.33 17.12-1.33 22 3.71-5.35 1.77-14.54 1.33-22z" fill="#ee274e" opacity=".65" style="isolation:isolate"></path><path d="M8.76 251.47a1.63 1.63 0 0 0 .75-1.39c-.99-.6-.51.83-.75 1.39z" fill="#ee274e" opacity=".65" style="isolation:isolate"></path><path d="M.5 57.92c1.68-7 .38-14.56.52-21.78.12-6.09 2.69-15.44.65-21C-.09 20.26.37 28.49.22 34A208 208 0 0 0 .5 57.92zm13.14 17.57c-.94-5-.17-10.33-.6-15.43-2.12 7.58-2 14.26-2 22.24 0 7.68-1 15.15-1.23 22.79-.54 16.37-.16 32.78.8 49s2 32.87 2.18 49.29q.15 11 .57 22c.22 6.11-.88 19.35 1.33 24.64 1.8-5.45 2.14-9.93 2.08-16.79 0-3.89-.22-8.12-.26-12.2-.16-16.28-1.13-32.8-1.86-49.1-1.41-32.19-2.53-64.13-1.01-96.44zM21 228.14c-.26-27.82-1.84-55.43-3.06-83.14-.59-13.29-.12-26.63-.16-39.95 0-14.88 1.44-30.65-.32-45.32-3 31.14-2 63.46-.81 94.63.61 16.49 1.35 33 1.79 49.48.1 4.6-.44 24.95 2.56 24.3zm-2 3.15c1.13 7.29-.32 15 1.48 22.15 1.33-3.11 1.43-6.68 1.39-10.22-.01-1.93-.93-16.83-2.87-11.93zM15.24 262c1.39-4.12 1.43-8.07-.51-11.77-.28 3.91-.45 7.91.51 11.77z" fill="#ee274e" opacity=".35" style="isolation:isolate"></path><path d="M10 234c3-5.94.76-12 .85-18.44.05-3.22 1.86-6.62 1.85-9.24 0-4.65-1.26-1.65-1.36-4.21.09-1.13.51-1.66 1.28-1.6v-4.35c.41-4.11-.4-8.85-.58-13-.4-9-.76-18-1.3-27-1-16.38-1.25-32.64-.94-49.11.13-7.68 1.2-15.21 1.2-22.92.07-8.6-.33-15.86 2-24.09.43 5.1-.34 10.45.6 15.43 1.16-16-2.27-33.15.62-48.87 1.19-6.45 2.79-3.53 7.06-5.32 5.52-2.31 9.73-1.77 15.57-2a153.39 153.39 0 0 0 17.5-2c2.16-.36 5.11-.56 7-2.45 3.06-3.1 1.39-2.88 1.3-6.47 0 1.4-1.44-7.61 0-5.29-1.57-2.58-3-1.15-5.23-.48-4.51 1.34-9.24 4.78-13.81 5-5.57.24-10.85 0-16.51.86-1.87.29-3.76.92-5.62 1.14-1.37.17-3.79-1-4.6-.68-1.45.52-2.48 3.1-4.2 3.72s-3.57-1.12-5.18-.54c-4.14 1.5-3.3 7.44-3.6 13.47a187.53 187.53 0 0 0 .29 25.64c.72 8.3 0 17.37.29 26 .28 8.15 1.51 15.93 2.1 24 .58 7.73-1.48 12.26-2.42 19.28s-.15 16.6.14 23.86c.3 7.76 2.78 11.84 1.77 19.41-1 7.18-.69 10.76 1.51 17.2 1.25 3.64 2.17 5.72 1.06 9.89-.24.91-1.69-2.58-2.18-1.91-.77 7.44-.2 17.88.77 25.06.53 4 1.29 4.63 1 9C8 227.87 7.63 230 10 234zm.8 49.54c-2.34.76-1.64 34.78-1.82 40.2-.23 7.22-2.71 30.45 5.27 28.31-2.34-12.31-4.08-21.18-2.86-34.42.62-6.69-.25-13 .22-19.66.3-4.35 2.94-11.78-.81-14.43zm8.39 67.6c-.32-4.91-2.56-.86-4 .84a4.06 4.06 0 0 0 4-.84zM8.76 251.47c0 5.56 1.35 10.66 1.29 16.31 0 3.32-2.39 12.14.87 13.14 1-7.84 2.85-11.73 1.73-20.06-.81-6-.67-12.55-2.67-18-2.57 2.28-2.15 5-1.19 8.69.32-.62-.37-2.09.72-1.43a1.63 1.63 0 0 1-.75 1.35z" fill="#ee274e"></path><path d="M16.84 55.78c1.55-1.37 2.89-14.64 2.22-17-.88-3.12-2.07.5-2.33.91-1.29 2.08-.28 13.53.11 16.09zM19 231.29c.47-1 1.07-1.28 1.82-.85.62-1.73.44-2.54-.53-2.44 0 1-1.88-6-1.83-6-1.22 1.32 1 5.08-1.92 3.41.05 2.59-.82 5.39.25 7.79.48-1.3 1.21-1.95 2.21-1.91zm-1.23 52.46c-2.29 3.25-2.45 5-.18 8.7 1.77-3.1-.59-5.59.18-8.7zm.79-72.92c0-3.18-1-3.72-2.65-5.83a23.75 23.75 0 0 0 .3 7.8c.54-1.33 1.33-1.98 2.35-1.97zM41.71 25.14c-.88.15-1 .73-.5 1.74.88-.11 1.05-.69.5-1.74zM15.82 276.45l-.69-1.59zm.69-53.99a.93.93 0 0 0 .11-1.31l-.11-.11zm2.14-10.57l.33 1.77z" fill="#ee274e"></path><path d="M67.19 201.22c.45 22 1.62 44 2.58 66 .92 21-.33 41.66-.25 62.62 0 5.26 2.52 17.32-.61 20.87-3.75 4.25-13.7 1.24-17.91 1.22-5.65 0-11.69 1.75-17.22.95-2.91-.42-5.92-.32-8.83-.81-2.37-.41-3.28-1.79-5.72-.87-.4-6.07-2.45 1-4 .84s-2.34-5.26-2.88-7.51c-2-8.26-1.86-16.36-1.14-25a145.9 145.9 0 0 0 .29-15.08c-.06-4.85 1.59-10.63 1.28-15.12-.18-2.73-1.69-3.83-2-5.71-.4-2.46.38-6 .85-8.26 1.11-5.35 2.3-6.82 1.37-12.8-.48-3-1.08-5-1.35-8.1-.18-2 .13-4-.17-6-1-7-1.37-9.61-.44-17.22 1-8.12-1.9-17.53 1.63-24.78.57 15.69.91 31.77 1.86 47.2.38 6.1.57 11.76.67 17.91.1 5.81-.46 16.41 2.37 21 1.06-1.86.92-9.5.85-12s-1.15-5.28-1.33-7.86c-.23-3.23.08-6.71.11-10 0-4.88-3.08-31.2 1.79-31.37 1.13 7.29-.32 15 1.48 22.15 1.9-4.45 1.46-9.94 1.12-14.83-.5-7.5-.66-14.66-.79-22.24-.28-16.47-1.24-32.81-1.87-49.24-.66-17.24-1.39-34.23-1.25-51.54.15-18 1.85-38.12-.27-55.83-4.74 48.85-.54 99.37 1.12 148.18-4.76.64-3.32-23-3.49-27.19-.56-13.79-1.43-27.54-1.82-41.35-.39-14.26-.61-28.61-.53-42.89.08-13.88 2-27.41.78-41.17-.54-5.89.12-11.63.29-17.69.09-3-.48-13.22.92-15 1.08-1.4 5.72-1.23 7.33-1.89a21.65 21.65 0 0 1 10.67-1.62c7.66.43 19.39.75 26.71-3.15 1.21-.64 3.52-1.52 4-3.71.62-2.67-1.15-2.66-1.24-4.72C62 5.34 62.71-.07 65.73 0c2.73 15 0 34.58-.47 50.09-.46 16.68-1.08 33.39-1.16 50.08-.1 33.83 2.37 67.34 3.09 101.05zM42 26.37c.25-.88-.66-2.06-1.07-.65.07 1.42.38 1.59 1.07.65zM18.34 52.06c.28-2.44 1.53-14.49-.44-14.19-2.53.38-1.39 15.7-1.06 17.91a4.55 4.55 0 0 0 1.5-3.72z" fill="#ee274e" opacity=".85" style="isolation:isolate"></path><path d="M11.33 202.14c-.16-1.92 1.23-2.35 1.49 1.3-.73.12-1.23-.3-1.49-1.3zm5.22 23.31c0-3.26-.74-17.73 2.1-13.56 1.98 2.91-.04 14.72-2.1 13.56z" fill="#ee274e" opacity=".85" style="isolation:isolate"></path></svg>