<svg xmlns="http://www.w3.org/2000/svg" viewBox="0 0 75.15 358.86"><path d="M48.63 160.05c-3.73-.16-3.38-53.61-.91-60.25.12 19.56-.72 40.88.91 60.25zm-8.01 33.83c-5.86 0-2.73-38-2.53-45.27 4.15 4.09-.09 18.88 1.25 25.89.69 3.6 1.56 2.85 1.68 6.74.16 4.67-1.68 7.33-.4 12.64zm-2.77 9.98c3.77-.05 2.92 1.12 2.7 5.93-.17 3.68-.58 6-.31 9.83.11 1.65 2.26 16.34-.36 16.13-3.28-.27-.8-8.3-.84-10.33-.11-7-1.04-14.22-1.19-21.56zM26 247c2.25.42.7 22.5.42 25.33-2.16-7.4-1.78-17.92-.42-25.33zM47.57 95.26c-4.36 1-3-10.31-3.06-13.93 2.99-2.75 3.08 12.73 3.06 13.93zm-1.19-18.47c-2.71-1-3.18-13.46-.42-14.23zM20.27 97.06c2.39.41 2.58 4.49.09 4.84z" fill="#fa194a" opacity=".65" style="isolation:isolate"></path><path d="M20.34 29.5l-.29-16.79c.8 10.12 8.21 99.13 4.62 99.81-1.33-15.2-1.74-30.44-2.34-45.72-.44-11.22.78-26.86-1.99-37.3zm6.24 194.67c.15 7.64.27 15.2.09 22.83-1 .16-2-101.72-2.06-112 2.27 6.78 1 14.45.77 21.59-.22 7.89.07 15.81.29 23.7.4 14.39-.29 29.71.91 43.88zm20.75-30.7a10.94 10.94 0 0 1 0-8.62q-.01 4.31 0 8.62zm-7.59-43.24c-3.81-3.74-2.11-22.95-2.24-29.76q-.3-16-.56-32c4.58 6.66 1.74 20.12 1.91 28.33.24 11.29 1.53 22.13.89 33.43zM29 187.43c1.66-4.51-.31-12.62-.36-17.84-.06-6.26-1.58-13.42 1.32-18.77.09 4.12 1.48 37.18-.96 36.61zm.52 27.43c-.11-5.06-.11-10.69 1.23-15.49l.53 30.29c-1.49-4.66-.02-10.38-1.76-14.8z" fill="#fa194a" opacity=".35" style="isolation:isolate"></path><path d="M48.63 160.05c-.07 8.65-.08 16.36-1.32 24.8-1 6.83 1.11 13 1.27 20.39s-.68 15.7.05 22.72c.22 2.12 2.92 18.27-1.28 12.27-.44-.62-.13-12.06-.22-13.68-.27-5-.41-9.83-.54-14.8-.11-4.39-.26-9-1.42-13.17-.22-.79-2.05-4.48-2-5.53.19-2.44 1.6-1.43 2.17-3.58.74-2.78.17-12.11-.38-15.11-1.5-8-4.34-2.62-3.75 3.47-4.77-1.27-1.08-36.7-1.32-42.75-.32-8.26-1.23-16.36-1.09-24.67.12-7.11 2.06-16.17-1.89-21.91.41 23.11 1.26 46.31.9 69.4-.09 5.64 0 11.26-.19 16.9-.11 4.52-1.42 13.52.23 17.52 1.29 3.11 3.76 1.16 3.86 6.57.11 5.64-2.36 5.31-4.48 3.5 0 0-2 16-2 17.35 0 5.64 1.82 9.45 1.51 15.25-.25 4.76-.58 4.76-2.24 7-1 1.32-1.73.41-2.79 2.64-.87 1.82.55 4.33-1 6.56-2.5-6-1.14-18-1.26-24.77-2.24 2.82-.42 11.72-2.54 12.24-.1-4.93-.44-11.09.44-14.58.15-.58 1.55-.87 1.85-2.36a48.55 48.55 0 0 0 .36-6.82c1.73 4.41.27 10.12 1.76 14.8l-.53-30.29c-.73 2.59-.34 5.61-1.39 8-.4-4.88-1.15-11.11-.49-16s1.53-5.09 1.57-10.89c.08-9.89-.29-19.83-.46-29.72-2.69 5-1.47 10.91-1.3 16.72.13 4.52 2.07 16.08.32 19.6-.69-1.26.22-2.75-1.31-3.19.06 3.21 2.06 20.47-1.32 21.5-.34-12-.78-23.94-1-35.91-.18-10.5 2.48-24.82-.77-34.52.06 20.82.15 41.65.4 62.47q.18 15.06.51 30.14c.11 5.41 2.55 21.41-.46 25.54-.13-7.6-.29-70.41-2.13-70.44l.68 38.89c-3.6-.81-3.74-39.12-3.15-45.21.89-9.27-.26-18.48-.28-27.81 0-10.62.59-21.21.59-31.83 0-4.73-.8-10.25-.41-14.87 1.13 0 1.76-.77 1.87-2.42-.19-1.6-.85-2.41-2-2.42-.4-1.78-1.64-6.55-1.88-8.35-.63-4.71 1-5.09 1.81-9.32 1.17-6-.85-15.32-1.18-21.57-.48-9 .56-18.57 1.45-27.48 2.92 11.53 1.55 28.47 2 40.76.54 13.86 1 27.63 2.17 41.42 3.6-.68-3.82-89.74-4.62-99.81 0 2.42 1.44 23.23-2.7 18-.18-.23.46-5.69.23-6.56-.6-2.22-2.93-3.69-4.07-5.34.22.31-3.94-7.45-4-6 .06-2 2.16-1.44 2.26-2.09.4-2.52 2.34-1.47.27-5.07-.85-1.5-5.72-2-7-1.83.68-6.49 1.58-2.91 4.61-1.92.82.27 2-.7 2.9-.24 1.13.61.36 1.84 1.36 2.78 2.77 2.6 3.6 1.2 6.27 1.66 3.69.66 6.05 2.24 9.85 2.43 1 .05 1.6-.7 2.87-.33.54.15.69 3.09 1.67 3.46s1.86-1.51 2.67-1.25c1 .32 2.89 2.15 3.5 2.28 2.49.54 3.39-1.15 5.94-1.71 2.73-.59 4.93.54 7.54 1.54 3.63 1.41 4.38 2.4 7.15-1.91 1.67 3.93 3.5 3.71 4.6 7.8.68 2.53 1.06 13.25-1.61 13.72-1.42.25-3.24-4.27-4.48-5.46a12.69 12.69 0 0 0-5.41-2.91c-2.24-.68-7.65-2.51-9.28-.15-1.75 2.54-.28 14-.29 17.69 0 6.39 1.56 13.44 1.1 19.66-.25 3.28-2.44 6.51-1.43 11.54.55 2.76 4.2 7.41 1.95 10-.82-.21-1-2.07-2-1.13.07 3.77-.56 9.38.56 12.89 1 3.25 1.6-.81 2.57 3.31.63 2.69-1.08 6.59-1.43 9.31a53.66 53.66 0 0 0 0 10.9c.41 6.07-1.37 42.13 2.45 42.29zm-16.82 72.19c0 .22.18 6.09 1.06 3.89a3.66 3.66 0 0 0-1.06-3.89z" fill="#fa194a"></path><path d="M67.91 79.22c-2.78-6.79-2.72-19.53-3.35-27.22a30.46 30.46 0 0 1 .29-7.39c.34-3.21 0-8.36.52-12.31 2.74 5.58 1.64 16.55 2.08 22.9.55 8.21.45 15.8.46 24.02zM.24 8.27c1 0 4.92-1 5.51 1.1 1.33 4.67-1.33 2-2.22 3.36s-1.42 1-2.13 3.44 0 8.19.05 10.94A136.5 136.5 0 0 1 .24 8.27zM3 2.47c-.83.94-1.36 3.1-2.82 1.45C.65 1.55 1.45.48 3 2.47zm35.35 231.59c3.68 2.72-.24-.13 2.89-2.91 2.65 3.36.32 6.33-.31 9.81-.76 4.28 0 8.58-.92 12.8-2.74-3.37-1.59-15.14-1.66-19.7zM16.83 39.08c-1.28-.5 1.56-3.19 1.46-3.08s2.25 4.31-1.46 3.08zM38.1 219.64a10.49 10.49 0 0 1 .16 8.7q-.07-4.34-.16-8.7zM16.45 62c-.67-1.18-.66-2.12 0-2.81 1.1-.67 1.71 3.6 0 2.81zm14.21 196.43c-.78-1.31-.82-2.41-.12-3.29 1.57-1.25.93 4.02.12 3.29zm18.19-8.29a1.72 1.72 0 0 1 0-2.2 1.77 1.77 0 0 1 0 2.2zm-22.37-41.75a2 2 0 0 1 .05 2.73c-.02-.91-.03-1.82-.05-2.73z" fill="#fa194a"></path><path d="M28 201.07c.06 3.27-1.43 2.77-1.62 4.38-.14 1.18.16 4.49.16 5.67 0 1.49-1 12.16.36 13 2.63 1.79 2.51-6.58 2.55-7.89.28-9 .68-21-.56-29.78-.18-1.3-.28-2.29-1.19-2.55.09 5.75.18 11.46.3 17.17zm4.87 35.06a3.66 3.66 0 0 0-1.06-3.89c-.04.22.19 6.09 1.06 3.89z" fill="#fa194a" opacity=".85" style="isolation:isolate"></path><path d="M65.67 30.8c-2 3.18-2.74-.7-4.23-2.32a15.53 15.53 0 0 0-8.94-5.15c-2.35-.5-6.22-2.34-7.69 1s0 14.83 0 18.83c0 11.4 1.27 23.34 1.87 34.63.24 4.63 2.64 16.86 1 22 .1 15.54.84 31.09.7 46.63-.07 8.22.43 16.34.3 24.56-.12 7.58-2.11 14.87-1.38 22.48.65 6.81 1.49 14.22 1.5 21.78 0 3.74-.73 7.84-.51 11.49.14 2.36 1.3 4.27 1.55 6.87.57 5.74-1.53 12.16-2.45 3.6-1-8.9-.37-18.55-.86-27.58a54.3 54.3 0 0 0-1.39-11c-.11-.42-1.88-4.07-1.87-4.9 0-3.22 1.31-1.17 1.91-3.64.79-3.24.09-10-.15-13.52-.32-4.52-1.3-9.8-3.91-3.78-.69 1.57-1.28 16.3-1.13 17.93.22 2.48 1.58 5 1.64 7.39a77.82 77.82 0 0 1-.91 9.26 74.75 74.75 0 0 0 .51 20.91c.2 1.37 1.19 5 1.22 6.33.07 2.64-1.2 4-1.55 6.4-.62 4.31 0 8.61-.92 12.8-3.17-3.91-1.64-18.07-1.72-23.51 0-3.93 1.27-25.9-1-27.86 0 0-2 16-2 17.35 0 5.64 1.82 9.45 1.51 15.25-.25 4.76-.58 4.76-2.24 7-1 1.32-1.73.41-2.79 2.64-.87 1.82.55 4.33-1 6.56-2.5-6-1.14-18-1.26-24.77-2.49 3.13-1.14 5.77-1.33 9.67-.12 2.39-1 1.58-1.24 3.62-1.28 10.56.65 21.87-.41 32.65-2.73-9.28-.84-89.55-3.5-89.59l.68 38.89c-4.14-.94-2.42-19-2.5-23.6-.14-7.38-1.31-14.85-.65-21.61 1-9.94-.35-19.91-.27-29.93.08-9.23.53-18.45.58-27.68 0-7.62.66-17.33-.63-24.86-.66-3.83-2.58-5.65-2-9.78.64-4.32 2.25-5 2.06-10.14-.27-7.65-1.72-15.38-1.41-23.1.29-7.14 1.6-14.38 1.52-21.46-4.51 4.49-1.65-2.61-3.85-7.18-.93-1.93-7-8-7-9.44.11-4.25 6.1-.92 2.53-7.16C11 3.94 6.42 3.86 5 3.8c-1.18-1.87-2.1-1.93-2.79-.17C1.64 4.7 1 4.8.17 3.92-1.45 12.08 9.3 6 4.29 12.73c-1.65 2.2-1.61-1.13-2.86 2.38-.88 2.44 0 9.21 0 12C1.87 47.25 3.27 67.42 4 87.54c1.59 42.69.82 85.52 1.77 128.25.46 20.79-.17 41.58.54 62.35.69 20.19 3.7 40.53 2 60.66-.34 4-1.32 8.31.6 11.85 2.93 5.39 2.21.21 4.86.51 1.33.14 4 2.3 6.17 3.37 3.29 1.61 2.33 2.3 5.81 1.11 1.67-.57 2-2.75 4.17-2.06 5.24 1.69 3.49 8.77 7.92-.77 1.93 6.6 7.56 4.53 11.45 4.87 5.45.48 10.86.68 16.31 1 5.67.29 7.29 1.28 8.35-7.39A167 167 0 0 0 75.06 326c-.58-17.12-2.92-34.13-3.31-51.28-.41-17.47 0-35-.45-52.45-.83-36.72-.56-73.5-1.66-110.2-.49-16.6-2.07-32.35-3.9-48.58-.51-4.55-2.57-12.46-1.85-16.74.36-2.16 1.67-2.12 2-4.17.11-.87-.05-11.23-.22-11.78zm-48.75 8.3c-1.36 0 1.6-3.4 1.37-3.1s2.23 4.24-1.37 3.1zM16.45 62c-.67-1.18-.66-2.12 0-2.81 1.1-.67 1.71 3.6 0 2.81zm15.48 199.66c-.12 3.84-1.95.43-1-3a4.36 4.36 0 0 1 1 3zm-.78-6.5c.52.43.3 2.52 0 3.3-.62 1.6-1.78-4.79 0-3.3zm18.1-6.09c0-3.74-.84 6.69-.79 0 .28-1.5.54-1.49.79 0z" fill="#fa194a" opacity=".85" style="isolation:isolate"></path></svg>