<svg xmlns="http://www.w3.org/2000/svg" viewBox="0 0 285.93 43.69"><path d="M170.52 12.23L177.36 1h10.74v41.92h-10.85V19.13l-6.73 11-6.74-11v23.79h-10.84V1h10.73zM0 1h27.14v8.91h-8.23v33H8.07v-33H0zm82.12 16.58V11.1a1.92 1.92 0 0 0-.8-1.56 3 3 0 0 0-1.9-.65 3 3 0 0 0-1.94.65 1.94 1.94 0 0 0-.79 1.56v6.48zM89 3.22A9.66 9.66 0 0 1 93 11v31.92H82.16V26.36h-5.47v16.56H65.85V11a9.67 9.67 0 0 1 4-7.77A14.81 14.81 0 0 1 79.46 0 14.69 14.69 0 0 1 89 3.22zm11.09 39.7V1H111v41.9zm34.56-30.69V1h10.83v41.9h-10.79V30.09l-5.47-11v23.83h-10.84V1h10.73zm75.54 21.93a2 2 0 0 0 .8-1.56V11.12a2.09 2.09 0 0 0-.8-1.55 3.19 3.19 0 0 0-3.86 0 1.92 1.92 0 0 0-.79 1.55V32.6a1.94 1.94 0 0 0 .79 1.56 3.23 3.23 0 0 0 3.86 0zm7.61-31a9.73 9.73 0 0 1 4 7.7v21.96a9.71 9.71 0 0 1-4 7.69 15.9 15.9 0 0 1-19.08 0 9.56 9.56 0 0 1-4-7.63v-22a9.59 9.59 0 0 1 4-7.67 15.9 15.9 0 0 1 19.08 0zm68.09 6.7h-13.21l-.08 7.7h11.55v8.85h-11.47V34h13.25v8.89h-24.11V1h24.11zm-42.34 7a1.94 1.94 0 0 0 .79-1.56v-3.21a1.92 1.92 0 0 0-.78-1.53 3.06 3.06 0 0 0-2-.65H239v7.65h2.69a3.25 3.25 0 0 0 1.9-.64zm11.63-1.53a9.49 9.49 0 0 1-3.2 7.09c2.14 2 3.19 3.2 3.19 5.89v14.61h-10.8V28.65a2 2 0 0 0-.78-1.56 3.31 3.31 0 0 0-2-.64h-2.69v16.47h-10.82V1h13.63a14.89 14.89 0 0 1 9.56 3.21 9.8 9.8 0 0 1 3.94 7.82zm-206.63 0v-3.22a1.93 1.93 0 0 0-.78-1.53 3 3 0 0 0-2-.64h-2.59v7.64h2.69a3.27 3.27 0 0 0 2-.63 2 2 0 0 0 .72-1.56zm7.66 8.38c2.13 2 3.19 3.2 3.19 5.89v13.24a.19.19 0 0 1 0 .08H48.6V28.67a2 2 0 0 0-.79-1.56 3.25 3.25 0 0 0-1.95-.64h-2.7v16.45H32.31V1h13.63a15 15 0 0 1 9.57 3.21 9.84 9.84 0 0 1 3.93 7.83v4.6a9.51 9.51 0 0 1-3.19 7.13z"></path></svg>