<svg xmlns="http://www.w3.org/2000/svg" viewBox="0 0 59.9 376.78"><path d="M42.51 260c1 8.06.15 16.86-.57 24.66a96.51 96.51 0 0 0-.5 11.53c.07 2.84 1.34 9.06.55 11.31-1.74 5-2.74.75-3.45-2.84s.63-8 .28-11.56c-.27-2.73-1-4.06-1.08-6.14-.18-4.44.85-6.52 1-10.94.3-8.14-1.54-17.16-.49-25.16.8-6.13 2.23-7.13 2.32-14.44.06-4.06-.94-28.32 1.42-30.38.23 6.39.43 27.3.48 33.84.05 4.54-2.22 16.87.04 20.12zm-.81-61.12c-3.16 1-1.92-14.18-1.78-17.9.29-7.45-.63-17.87.86-24.95 1.64 7.84 1.42 15.32 1.37 23.36-.02 3.94 1.34 16.74-.45 19.49zM20.55 325c3.44 3.75 4.38 8.53 3.35 15-.46 2.9-2.3 12.61-3.77 13.33.17-9.46.87-18.84.42-28.33zm2.23-53.74c-.28-.74-1.39-6.86-1.45-7.41-.55-4.73-.43-10-.63-14.8 3.79-.84 3.56 18.75 2.08 22.21zm.53-100.19l-1.57 1.72c.13-6.11-2.4-11.56-.83-17.64 1.79 4.85 2.31 10.37 2.4 15.92zM22.85 240c-1 1.13-.33 3.87-1.54 4.77-1.43-3.9.29-7.91-.41-12 2.35 2.47 2.87 2.58 1.95 7.23zm-1.78-43.36a23.56 23.56 0 0 1 2.06 8.82c-2.15 1.4-3 .4-2.57-3a10.79 10.79 0 0 1 .51-5.82zm15.15-5.11c1.84-3.65 2 5 .31 7.52-.1-2.52-.2-5.05-.31-7.52zm-12.75 3.33c-1.49.46-3.75-2.05-1.8-4.24 1.14 3.83 1.51-1.53 1.8 4.24zM41 346.53c-.47-4.89-.62-9.86.69-14.29.05 2.76.98 14.23-.69 14.29zm-2-31.21c-.6-3.5 1.48-3.67 1.55-.1z" fill="#fa194a" opacity=".65" style="isolation:isolate"></path><path d="M49.24 374.54c-.55-4.28 2.93.58 1.49 1.66-.81.61-.8-1.58-1.49-1.66zm-18.16-87.79c-.37 24.45-.52 48.95-2 73.18-.28-18.93-.15-37.22.43-56.09.23-7.53-.74-13.39-.4-20.91.3-6.85-.87-13.35-.82-19.94.27-36 .33-87.78.06-124.4 1.27-.38 1.26 29 1.31 32.8.17 13.1.69 26.34.59 39.42 0 4.85.19 24.44.29 29.34.12 5.46-1.38 8.41-1 13.79.65 10.86 1.34 22.2 1.54 32.81zm6.22-75.65c1.36 3.82.69 23.93.71 28 0 6 .15 12 .18 18.06 0 4.37 2.49 23.48-.57 25.1 0-10.38 0-20.76.09-31.13.05-7.73-2.62-33.01-.41-40.03zm-14.52 60.16c.71 5 1.38 26-1.44 27.69-1.06-10.3-.83-24.81 0-35.1 1.95 1.66.51 4.95 1.44 7.41zm14.61-111.05c0 3.31 1.06 6.79-.26 9.88.09-3.29-1.13-6.8.26-9.88zm.39 128.29c3.52.28-2.24 22.24 3 21.52 1.85-.25 1-25 1.72-29.14a299.08 299.08 0 0 1-1.42 46.55c-.12-2.65.35-12.3-.72-14.26-1.74-3.22-1.46 3.06-1.66 4.07-1.14 5.78 1.13 21.06-2.07 24.05.15-17.63 1.71-35.08 1.15-52.79z" fill="#fa194a" opacity=".35" style="isolation:isolate"></path><path d="M16.32 365.4c.62-2.54 3.12-1.91 2.91-5.34-.25-3.89-2.56-2.1-3.77-2.68-2-.95-12.16-.17-12.79-1.81-1.81-4.7 10.8-1.36 11.62-1.24 5.24.72 6.32-.37 7.88-7.9 1.26-6.13 3.72-11.05 1-17.62a14.69 14.69 0 0 0-2.62-3.81c.09-2.89.18-5.79.26-8.68.13-4.18-.14-9 .4-13a190.47 190.47 0 0 0 1.88-21.05c.27-8.95.81-16.83.38-25.87 5.43-.09 2.12 15.83 1.92 20.26a55 55 0 0 0 1.38 14c1.32 4.42 2.11 1.59 2.89 7 1.21 8.47-.91 20.47-1 29.11-.15 11.19.23 22 .4 33.2.77-12.3 1.2-24.69 1.47-37.1.26-11.51-.68-24.88.57-36.08.35-3.18 1-6.35 1.19-10.35.19-4.92.78-9.74.71-14.71-.16-11.52-1.08-20.58.53-31.86 1.79 4.57.63 10.45 2.06 15.24 1.56-2.12.18-5.21 1.45-7.28 1.56 7.77.63 17.67.62 25.63 0 8.37 0 16.71.14 25.08.38 17.73-1 35.13-1.13 52.79 4.17-3.9-1.86-25.68 3.92-26.07l.53 12.21c2.14-18.2 1.23-36.39 1.64-54.89.18-8.06-.47-16-.39-24 0-4.35.14-8.65.06-13 0-.4-.18-13.73.65-5.57.51-4.25.16-23.65 1.07-27.7 2 1.68 1.92 24.08 2.3 27.07.35 2.8 1 3.91.9 6.75-.11 3.13-1.43 6.77-1.63 10.12-.78 13.49.45 28.75.79 42.39s-1 27.64-.58 41.37c.14 4.48.48 8.15.41 12.64-.09 6-.07 15.67 2 21-2.33-.25-2.69.29-4.2 2.05-.53.61-.51 2.62-1.19 3.5-.81 1.07-3.48 1.25-4.35 1a37.24 37.24 0 0 0-5.85-1.69c-2.74-.39-2.82.58-3.8-4.78-1.24 3.16-3.51 2.69-5.22 4.55-1.82-10.23-5.17 2.49-7.41-2.88zM41 346.53c1.56 0 .72-11.42.69-14.29-1.29 4.43-1.14 9.4-.69 14.29zM3.41 363c1.22-1.73 4.35-2.69 5.16-.79-2.3.54-2.57 5.1-5.16.79z" fill="#fa194a"></path><path d="M12 363.15c.25-3.43 2.35-1.72 2.48 1.05a2.88 2.88 0 0 0-2.48-1.05zm-3.24-.44a1.17 1.17 0 0 1 .62.93c-.52.36-.64-.15-.62-.93zM42 206c-4.62 4 1.94 38.69-3.47 40.65-1-5.53.32-10.65-.12-16-.38-4.53-2.5-22.36-2.34-27 .09-2.55 3.47-10.57 1.48-12.93-1-1.24-2.49 2.87-3.37 2.76-3.92-.51 2.65-9 3.8-9 5.08-.38-1 15.89 3.71 14.44zm-18.69-34.93c.59 3.15 1.82 25.89-1.64 19.55-1.12-2-.9-10.67-.72-13.18.41-5.6-.75-2.96 2.36-6.37zm17 .79c.44 4.66-1.37 13.88-3.69 6.94-.31-.94.27-5.44.34-6.16a103.14 103.14 0 0 0 .43-12.43c2.07 2.5-.02 11.21 2.92 11.65zm-17.1 33.71c.06 3.57 3.64 30-.41 29.2-2.49-.52-1.75-25.55-2.12-29.33 1.03-.95 1.88-.91 2.53.13zm29.06 154.27c1.24 2.15 8 6.73 2.74 7.57-2.42.38-7.1-6.91-2.74-7.57zm-29.46-107.9c-1.32-5.38-2.74.73-1.5-7.22a22.28 22.28 0 0 1 1.54-4.72c.09 4.67 4.15 9.68-.04 11.94z" fill="#fa194a"></path><path d="M23.47 194.86c.08 1 2.15 12.66-.3 10.65-.48-.39-2.16-10.95-2.19-11.91a3.23 3.23 0 0 0 2.49 1.26zm5.08 75.72a35.6 35.6 0 0 1 .52 12.35c-2.07-2.42-.79-9.09-.52-12.35zM30 247.11l.69-.66c.22 5.18 1.35 10.52.06 15.45-.46-4.9-.19-9.9-.75-14.79zm14.18-59.57c1.68 3.31 1.72 5.23.89 7.61-1.66-1.86-1-4.03-.89-7.61zm-12.77 98.33a15.26 15.26 0 0 1-.22-8.1 38.48 38.48 0 0 1 .22 8.1zm-.84-47.81c-.16-2.75-.5-5.53.25-8.11.1 2.73.91 5.6-.25 8.11zm-1.85 4.56a3.78 3.78 0 0 1-.27 3.15c-1.51-1.6-1.06-2.52.27-3.15zm4.21-42.87c.82.08 1 .65.47 1.69-.81-.04-.97-.6-.47-1.69zm-11.44 95.49l-.36 1.76zm-.17-4.51a4 4 0 0 1 .09 1.38zm7.36-4.73l-.24 1.76zm.07-17.87a2.2 2.2 0 0 1-.22 1.77c.07-.59.15-1.18.22-1.77zm-.5-5.13a2.36 2.36 0 0 1 .47 1.92 2.79 2.79 0 0 1-.47-1.92zm.4-2.41a2.63 2.63 0 0 1-.41 2 3 3 0 0 1 .41-2zm13.1-61.82l.68-1.59z" fill="#fa194a"></path><path d="M.4 129.8c-.7 22.5.81 50.92.71 73.6C1 226.68 2.32 265 2.25 288.3q0 16.59-.59 33.15c-.39 10.95-2.43 25.3-1.12 36.17 1.16 9.53 3.94 2 7.32 2.9.65.17.66 2.9 1.52 3.12 2.36.6 2.57-2.38 4.36-1.91 2.07.54-.17 4.15 3 3a6 6 0 0 0 2.53-4.63c-.31-4.77-12.31-4-14.1-4.25-.36-.06-3.74 1.27-2.28-2 1.29-2.89 5.76-1 7.54-.58 2.18.45 6.53 3.1 8.55.8s1.46-8.83 1.59-13.43c.88-31.12.75-60.39.17-91.54-.13-7 .08-29 .29-36.14.2-6.57-.49-13 0-19.31.39-5.15-.29-10.3 0-15.85.21-4.27.49-4.05.62-7.7.2-5.44-2.17-9.13-.68-14.9 1.25 3.39 5.84 36.84 2.43 37 .14 3.63 3 12.51-.13 13.43.17 2.22.92 4.51 1 6.67.25 5.12-1.2 22.45-1.26 27.17-.06 4.39 2 6.75 1.46 10.8-.29 2.23-2 .89-1.68 4.09.33 3.6 2.08 1.18 3 3.66 1.52 4.13.71 10.3.25 14.44-.62 5.58-.87 12.61.77 18.19.46 1.59.48 5.22 1.87 2.54 1.09-2.19-.68-12.47-.68-14.14-.08-5.2.3-10.58.25-15.5 0-2.81.37-5.54.33-8.51s-.17-6.2-.13-9.27c-.92-.57-1.17-1.26-.73-2.08.16-.71.5-1.07 1-1.07-.57-29.53-.19-74.37-.41-104 1.19-.36 1.31 33.18 1.36 36.94.19 14 1.62 43.53 1.41 57.44-.26 17.54-.32 36.13 0 53.78 2.5-3.61 2-21.28 1.82-26.89-.38-10.85-.91-19.44.61-30 1.79 4.57.63 10.45 2.06 15.24 2.23-3 1.32-31.18 1.23-35 0-2.16-.66-4.41-.66-7.14 0-3.85.25-7.38.08-11.35-1.23.69-1.92 2.85-3.06 1.46-2.23-2.71 1.94-4.3 2.17-4.63 3.31-4.62 1.23-2.21 4.72-3-.2-6.63-2.76-3.11-3.34-9.3-.31-3.37-.61-12.88.68-15.82 2.07 2.5 0 11.21 2.92 11.65.36-5.43-.65-10.54.47-15.83 4 19.22.31 54.54 2.28 73.9.51-4.25.16-23.65 1.07-27.7 2 1.68 1.92 24.08 2.3 27.07.35 2.8 1 3.91.9 6.75-.11 3.13-1.43 6.77-1.63 10.12-.78 13.49.45 28.75.79 42.39s-1 27.64-.58 41.37c.14 4.48.48 8.15.41 12.64-.09 6-.07 15.67 2 21-2.12-.23-6.49.91-3.92 6.76 1.72 3.91 1.1-1.78 2.32.3.52.91.5 4.78 1.4 5.2 2 1 .66-3.35 1.48-3s1.74 2.74 2.66 2.66c3.41-.28 1.94-5.16 4.29 1.15 2.81-4.88 2.34-8.2 2.34-15.3 0-9.37.29-18.68.54-28 .45-17 .59-33.89.36-50.94-.51-37.09-.3-89-.82-126.1-.53-37.26-.76-79.64 0-116.77.17-8.32 1-19.54-.59-27.72-1.73-9.23-4-4.23-8-5.47-1.8-.56-3.45-3.69-5.23-3.94-2-.28-3 2.15-4.76 2.63-3.78 1-5.86-5-8.52 1.24C31 5.62 30.8 2.28 30 2c-1.87-.66-3.83 0-5.74-.22-4.7-.46-9.37-.48-14.07-.85C6.78.65 3-2.17 1 3.65-.87 9 .47 19.12.42 25.26.18 60 1.48 95.25.4 129.8zm33.27 70.45c-.23 1.13 0 1.4-1 .75.33-1.51.11-1.36 1-.75zm23.16 164.93c1.21 4.6-6.44 1.44-6.29-2.29.22-5.83 5.46-.76 6.29 2.29zm-11.76-170c-1.66-1.86-1-4-.89-7.61 1.68 3.28 1.72 5.2.89 7.58z" fill="#fa194a" opacity=".85" style="isolation:isolate"></path></svg>