<svg xmlns="http://www.w3.org/2000/svg" viewBox="0 0 72.01 352.02"><path d="M46.24 237c.73 7.95-.46 16.56-1.47 24.19a90.93 90.93 0 0 0-.93 11.3c0 2.79 1 8.95.14 11.13-1.94 4.8-2.8.64-3.38-2.91s.93-7.82.7-11.35c-.17-2.68-.86-4-.87-6.07 0-4.36 1.11-6.37 1.44-10.7.6-8-.93-16.91.42-24.72 1-6 2.52-6.92 2.89-14.1.2-4 .08-13.1 2.55-15 0 6.29-.57 12.09-.76 18.5-.14 4.42-2.89 16.44-.73 19.73zm1.44-45.32c-3.24.83-1.43-14-1.15-17.64.57-7.3 0-17.57 1.79-24.47 1.37 7.76.87 15.09.53 23-.17 3.86.74 16.48-1.17 19.11zM21.64 300c3.34 3.8 4.12 8.53 2.84 14.82-.58 2.83-2.79 12.29-4.3 12.95.51-9.22 1.56-18.41 1.46-27.77zm4.23-52.66c-.25-.74-1.15-6.79-1.19-7.33-.39-4.66-.07-9.85-.1-14.56 3.86-.69 2.92 18.55 1.29 21.89zm4.22-83.62l-1.65 1.63c.35-6-2-11.43-.19-17.35 1.63 4.85 1.95 10.27 1.84 15.72zM27.1 216.6c-1.09 1.07-.49 3.78-1.74 4.62-1.31-3.88.58-7.75 0-11.74 2.31 2.52 2.83 2.63 1.74 7.12zm-.21-27.85a22.57 22.57 0 0 1 1.75 8.73c-2.22 1.31-3.06.29-2.49-3a10.24 10.24 0 0 1 .74-5.73zm15.51-4.48c2-3.52 1.88 5 0 7.39.03-2.47.01-4.93 0-7.39zm-13.02 2.81c-1.53.4-3.72-2.14-1.67-4.22 1.02 3.79 1.58-1.46 1.67 4.22zM41.56 321.9c-.3-4.82-.26-9.71 1.22-14-.07 2.74.45 14-1.22 14zm-.88-30.72c-.47-3.45 1.64-3.55 1.57-.05z" fill="#fa194a" opacity=".65" style="isolation:isolate"></path><path d="M48.85 349.7c-.4-4.23 2.94.67 1.45 1.68-.85.62-.76-1.58-1.45-1.68zM33.7 262.84c-1.27 24-2.33 48.05-4.76 71.79.42-18.6 1.22-36.56 2.5-55.07.51-7.38-.25-13.16.37-20.54.56-6.72-.39-13.14-.1-19.6 1.6-35.3 3.56-71.45 4.63-107.42 1.3-.32.21 28.51.12 32.25-.31 12.88-.26 25.9-.85 38.73-.21 4.77-.7 9.27-.78 14.09-.09 5.36-1.71 8.21-1.55 13.5.33 10.69.61 21.85.42 32.27zm9.07-59.31c1.24 3.79-.18 8.78-.31 12.73-.2 5.94-.28 11.74-.46 17.74-.13 4.29 1.66 23.14-1.5 24.63.4-10.19.78-20.38 1.24-30.56.32-7.56-1.46-17.74 1.03-24.54zm-16.9 43.81c.54 4.94.44 25.61-2.48 27.13-.69-10.15.08-24.38 1.29-34.46 1.91 1.7.32 4.88 1.19 7.33zm18.86-93.78c-.09 3.25.82 6.7-.62 9.69.21-3.25-.86-6.71.62-9.69zM40.41 264.8c3.56.4-3.08 21.75 2.27 21.24 1.88-.19 1.88-24.5 2.82-28.55a284.66 284.66 0 0 1-3.16 45.65c0-2.6.81-12.06-.2-14-1.64-3.21-1.59 3-1.83 3.95-1.36 5.63.36 20.71-3 23.54.8-17.34 3.02-34.42 3.1-51.83z" fill="#fa194a" opacity=".35" style="isolation:isolate"></path><path d="M15.87 339.54c.73-2.47 3.23-1.76 3.14-5.13-.1-3.83-2.5-2.16-3.71-2.77-2-1-12.29-.6-12.87-2.23-1.66-4.69 11-1 11.8-.81 5.27.9 6.41-.14 8.26-7.47 1.5-6 4.17-10.73 1.62-17.27a14.27 14.27 0 0 0-2.47-3.86c.2-2.84.39-5.68.59-8.52.28-4.1.18-8.88.87-12.78a180.79 180.79 0 0 0 2.68-20.6c.6-8.78 1.44-16.5 1.34-25.39 5.5.1 1.56 15.62 1.19 20a53.36 53.36 0 0 0 .89 13.76c1.17 4.39 2.08 1.64 2.67 7 .91 8.35-1.68 20.06-2.11 28.54-.56 11-.57 21.64-.82 32.62 1.24-12.05 2.13-24.2 2.86-36.38.68-11.3.23-24.46 1.9-35.41.47-3.11 1.28-6.2 1.58-10.12.38-4.82 1.15-9.53 1.27-14.42.25-11.31-.35-20.24 1.7-31.26 1.65 4.56.25 10.28 1.52 15 1.66-2 .37-5.11 1.74-7.1 1.29 7.69 0 17.37-.32 25.19-.33 8.21-.65 16.4-.78 24.63-.27 17.42-2.3 34.46-3.07 51.8 4.36-3.69-1-25.29 4.91-25.47l.09 12c2.84-17.79 2.59-35.69 3.68-53.84.48-7.9.11-15.73.49-23.61.2-4.27.46-8.48.54-12.77 0-.39.32-13.49.86-5.44.67-4.16 1-8.48 2.1-12.43 2 1.73 1.05 9 1.33 11.93.26 2.77.87 3.87.66 6.66-.22 3.07-1.69 6.6-2 9.87-1.29 13.23-.6 28.25-.76 41.66s-2.06 27.11-2.11 40.6c0 4.41.18 8 0 12.43-.31 5.87-.65 15.38 1.22 20.7-2.35-.33-2.73.19-4.32 1.86-.57.58-.62 2.55-1.33 3.4-.86 1-3.58 1.09-4.45.81a37.65 37.65 0 0 0-5.86-1.86c-2.75-.49-2.86.47-3.66-4.84-1.38 3.07-3.65 2.52-5.45 4.28-1.47-9.97-5.34 2.4-7.41-2.96zm25.69-17.64c1.58 0 1.15-11.2 1.22-14-1.48 4.29-1.52 9.18-1.22 14zM2.9 336.71c1.3-1.66 4.5-2.49 5.25-.59-2.35.47-2.78 4.93-5.25.59z" fill="#fa194a"></path><path d="M11.61 337.18c.38-3.36 2.44-1.6 2.47 1.12a3 3 0 0 0-2.47-1.12zm-3.29-.55a1.17 1.17 0 0 1 .6.94c-.54.33-.64-.17-.6-.94zm39.41-137.94c-4.83 3.79.54 23.32-5 25.06-.76-5.47.72-10.45.46-15.72-.21-4.46-1.7-7.31-1.36-11.87.18-2.5 3.89-10.26 2-12.64-1-1.25-2.63 2.73-3.52 2.59-3.94-.64 3-8.7 4.18-8.74 5.15-.19-1.63 15.56 3.23 14.31zm-17.64-34.97c.49 3.11.89 25.48-2.38 19.14-1.05-2.05-.52-10.52-.24-13 .62-5.45-.66-2.86 2.62-6.14zm17.17 1.38c.28 4.59-1.9 13.58-4 6.68-.28-.93.47-5.33.57-6a97.28 97.28 0 0 0 .89-12.18c2.02 2.49-.42 10.96 2.54 11.5zm-18.54 32.49c-.07 3.5 2.58 14.89-1.48 13.92-2.5-.6-.84-10.41-1.08-14.13 1.09-.91 1.94-.83 2.56.21zm23.73 137.78c1.18 2.16 7.9 6.89 2.5 7.52-2.47.29-6.95-7.03-2.5-7.52zm-25.84-107c-1.14-5.33-2.8.61-1.25-7.15a21.83 21.83 0 0 1 1.74-4.62c-.1 4.63 3.9 9.7-.49 11.77z" fill="#fa194a"></path><path d="M29.38 187.08c0 1 1.71 12.51-.7 10.45-.47-.4-1.78-10.83-1.77-11.77a3.28 3.28 0 0 0 2.47 1.32zm2.35 59.8a33.59 33.59 0 0 1 .08 12.12c-2.01-2.43-.47-8.93-.08-12.12zm2.27-23l.72-.62c0 5.09 1 10.38-.51 15.17-.21-4.84.24-9.73-.21-14.55zm16.6-43.25c1.57 3.32 1.55 5.2.62 7.51-1.61-1.89-.86-4-.62-7.51zM34.06 262a14.79 14.79 0 0 1 .08-8 35.67 35.67 0 0 1-.08 8zm.94-47c-.06-2.7-.3-5.44.56-7.95-.04 2.7.68 5.55-.56 7.95zm-2.06 4.43a3.57 3.57 0 0 1-.39 3.08c-1.48-1.62-.98-2.51.39-3.08zm5.83-27.21c.83.11 1 .67.41 1.68-.82-.07-.96-.63-.41-1.68zm-15.08 78.61c-.14.56-.29 1.12-.43 1.67.14-.5.29-1.11.43-1.67zm-.01-4.43a3.46 3.46 0 0 1 0 1.36zm7.62-4.4c-.11.57-.21 1.14-.31 1.71.1-.53.21-1.1.31-1.71zm.7-17.52a2.12 2.12 0 0 1-.29 1.73c.13-.58.22-1.16.29-1.73zm-.29-5.06a2.23 2.23 0 0 1 .4 1.9 2.76 2.76 0 0 1-.4-1.9zm.5-2.35a2.48 2.48 0 0 1-.5 2 2.84 2.84 0 0 1 .5-2zm15.52-45.49l.75-1.55z" fill="#fa194a"></path><path d="M8.43 127.29c-1.54 22.07-1.06 45.12-2 67.38-1 22.86-1 45.8-2 68.67-.44 10.87-1 21.72-1.82 32.53S-.73 320.63.2 331.34c.82 9.4 3.91 2.11 7.29 3.11.65.19.57 2.87 1.43 3.12 2.37.67 2.68-2.25 4.48-1.72 2.08.6-.33 4.07 2.89 3a5.81 5.81 0 0 0 2.71-4.44c-.13-4.7-12.31-4.32-14.1-4.68-.36-.07-3.84 1.11-2.24-2.05 1.41-2.8 5.87-.74 7.65-.31 2.2.53 6.5 3.28 8.62 1.09s1.8-8.61 2.11-13.12c2-30.53 3-59.28 3.53-89.89.13-6.85 1.15-13.75 1.62-20.74.45-6.44 0-12.74.71-19 .58-5 .08-10.13.57-15.57.37-4.18.64-3.95.91-7.54.4-5.33-1.86-9-.14-14.65 1.13 3.38 4.56 36.38 1.09 36.41 0 3.57 2.53 12.38-.62 13.18.09 2.18.76 4.46.79 6.59.06 5-2.05 7.26-2.28 11.89-.21 4.31 1.78 6.7 1.09 10.66-.38 2.17-2 .8-1.86 4 .21 3.54 2.06 1.22 2.9 3.7 1.39 4.11.35 10.13-.27 14.18-.83 5.46-1.35 12.35.11 17.89.41 1.57.29 5.14 1.8 2.56 1.22-2.1-.17-12.2-.13-13.84.11-5.12.69-10.39.82-15.22.08-2.75.58-5.43.64-8.35s.06-6.09.22-9.1c-.92-.59-1.14-1.28-.67-2.06.19-.7.54-1 1.06-1 .5-29 2.53-58.3 3.4-87.43 1.22-.3.11 32.63 0 36.32-.33 13.77 0 28.06-.68 41.72-.92 17.21-1.66 35.46-2 52.8 2.66-3.45 2.81-20.82 2.83-26.34 0-10.66-.2-19.11 1.72-29.46 1.65 4.56.25 10.28 1.52 15 2.37-2.91 2.49-15.84 2.54-19.64 0-2.12-.5-4.35-.41-7 .14-3.78.52-7.24.5-11.14-1.27.63-2 2.73-3.15 1.32-2.15-2.74 2.12-4.15 2.37-4.47 3.52-4.42 1.32-2.13 4.89-2.81 0-6.51-2.68-3.15-3-9.25-.2-3.31-.15-12.66 1.26-15.5 2 2.53-.43 11 2.53 11.54.57-5.32-.27-10.37 1.06-15.53 3.36 19-1.69 38.83-.41 57.91.67-4.16 1-8.48 2.1-12.43 2 1.73 1 9 1.33 11.93.26 2.77.87 3.87.66 6.66-.22 3.07-1.69 6.6-2 9.87-1.29 13.23-.6 28.25-.76 41.66s-2.06 27.11-2.11 40.6c0 4.41.18 8 0 12.43-.31 5.87-.65 15.38 1.22 20.7-2.13-.3-6.6.66-4.22 6.49 1.6 3.91 1.19-1.7 2.34.39.5.91.33 4.71 1.22 5.15 2 1 .8-3.26 1.61-2.9s1.66 2.75 2.6 2.71c3.46-.15 2.15-5 4.29 1.28 3-4.69 2.68-8 2.94-14.93.35-9.2 1-18.34 1.57-27.5 1.08-16.65 1.84-33.26 2.23-50 .86-36.43 3-72.67 3.81-109.11.84-36.6 2.16-73.31 4.3-109.74.48-8.17 1.68-19.15.43-27.24-1.46-9.13-4-4.31-7.94-5.66-1.8-.62-3.36-3.75-5.15-4.06-2-.35-3.09 2-4.9 2.41-3.87.87-5.75-5.1-8.68.92-.87-.66-.92-3.95-1.72-4.26-1.87-.72-3.87-.18-5.8-.43-4.73-.61-9.46-.8-14.2-1.33-3.44-.39-7.16-3.29-9.42 2.35-2.07 5.17-1.09 15.17-1.36 21.2-1.53 34.07-1.51 68.76-3.86 102.65zm31.07 65.45c-.28 1.1-.1 1.37-1 .7.33-1.44.12-1.33 1-.7zm17.37 148c1.06 4.56-6.56 1.17-6.28-2.48.41-5.68 5.57-.52 6.28 2.52zm-5.65-152.6c-1.61-1.89-.86-4-.62-7.51 1.57 3.37 1.55 5.2.62 7.51z" fill="#fa194a" opacity=".85" style="isolation:isolate"></path></svg>