<svg xmlns="http://www.w3.org/2000/svg" viewBox="0 0 81.67 379.86"><path d="M52.28 166.78c-3.58-.1-4.47-58.45-2.24-65.13.51 19.52.3 45.82 2.24 65.13zm-7.02 33.91c-5.63.08-3.55-42.9-3.5-50.15 4.06 4 .46 23.85 1.89 30.83.73 3.57 1.55 2.81 1.74 6.7.24 4.65-1.46 7.34-.13 12.62zm-2.77 1.82c3.62-.12 2.83 1 2.7 5.63-.09 3.53-.44 5.78-.12 9.43.14 1.58 2.46 15.61 0 15.46-3.15-.2-.92-7.94-1-9.88-.28-6.71-1.33-13.61-1.58-20.64zM21 255.65c2.18.43.3 21.57 0 24.28-2-7.12-1.4-17.2 0-24.28zM49.81 97.12c-4.16 1.06-3.07-10.23-3.2-13.85 2.82-2.8 3.2 12.65 3.2 13.85zm-1.5-18.41c-2.62-.9-3.31-13.38-.68-14.2q.37 7.09.68 14.2zM18 95.79c2.31.45 2.43 4.53 0 4.83z" fill="#fa194a" opacity=".65" style="isolation:isolate"></path><path d="M19.23 28.35V11.58c.6 10.11 6.3 99.11 2.8 99.72-1-15.2-1.18-30.42-1.51-45.69-.23-11.2 1.22-26.79-1.29-37.26zM22 227.79c0 7.64 0 30.18-.29 37.8-1 .14-.26-121.58-.12-131.82 2.1 6.8.72 19.43.39 26.56-.35 7.87-.2 15.78-.12 23.66.14 14.36-.86 29.59.14 43.8zm29.68-27.63a11.31 11.31 0 0 1-.18-8.61zm-8.31-48.02c-3.72-3.67-2.47-22.88-2.73-29.67q-.59-16-1.16-31.91c4.53 6.57 2.07 20 2.39 28.25.44 11.19 1.9 22.03 1.5 33.33zM25 191.16c1.69-4.48-.09-12.61-.05-17.82.05-6.25-1.31-18.42 1.6-23.71-.01 4.12.78 42.17-1.55 41.53zm0 27.39c0-5.05.07-10.68 1.46-15.44v30.25c-1.36-4.69.16-10.36-1.46-14.81z" fill="#fa194a" opacity=".35" style="isolation:isolate"></path><path d="M52.28 166.78c.1 8.63.24 16.33-.78 24.77-.83 6.84 1.31 12.91 1.62 20.34s-.35 15.68.49 22.68c.25 2.11 3.71 33.18-.45 27.26-.43-.61-.9-27-1-28.64-.36-4.95-.59-9.8-.81-14.77-.19-4.37-.43-9-1.62-13.12-.22-.79-2-4.43-2-5.49.14-2.43 1.51-1.45 2-3.6.66-2.8-.07-12.1-.67-15.08-1.59-8-4.21-2.54-3.53 3.53-4.6-1.19-1.93-41.66-2.28-47.66-.47-8.24-1.5-16.31-1.52-24.6 0-7.1 1.66-16.18-2.25-21.84.84 23.06 2.3 51.2 2.4 74.26 0 5.63.18 11.24.15 16.87 0 4.52-1.1 13.53.57 17.49 1.29 3.08 3.63 1.09 3.83 6.49.21 5.63-2.17 5.34-4.24 3.57 0 0-1.62 16-1.6 17.36.09 5.63 2.48 24.39 2.3 30.19-.15 4.75-.47 4.76-2 7-.92 1.33-1.65.44-2.62 2.68-.8 1.84.61 4.32-.89 6.58-2.51-5.95-2-32.92-2.23-39.7-2.1 2.85.37 26.7-1.66 27.25-.19-4.92-1.18-26-.4-29.55.13-.58 1.47-.89 1.72-2.39a50 50 0 0 0 .22-6.82c1.75 4.38.45 10.1 2 14.75l-1.09-30.23c-.65 2.6-.22 5.61-1.18 8-.48-4.88-1.32-11.08-.79-15.94.52-4.71 1.38-5.11 1.31-10.9-.13-9.87-.85-24.79-1.21-34.66-2.49 5-1 15.92-.74 21.72.21 4.5 2.3 16 .69 19.55-.69-1.24.16-2.74-1.32-3.16.11 3.21 2.37 20.4-.85 21.48-.56-11.93-1.21-23.88-1.65-35.82-.38-10.48 1.71-29.82-1.6-39.44.47 20.78 1.14 46.56 1.79 67.35q.48 15 1.07 30.07c.22 5.4 3.42 36.32.61 40.5-.27-7.58-2.2-85.28-4-85.27l1.41 38.81c-3.47-.75-4.35-39-3.9-45.08.68-9.26-.79-23.44-1-32.75-.23-10.6.15-21.18 0-31.79-.09-4.72-1-10.22-.68-14.84 1.09 0 1.67-.79 1.75-2.44-.22-1.6-.87-2.4-1.93-2.39-.42-1.76-1.7-6.5-2-8.3-.64-4.66.86-5.06 1.56-9.3 1-6.05-1.11-15.28-1.55-21.51-.64-9 .18-18.55.85-27.46 3 11.46 2 28.4 2.75 40.66.79 13.82 1.46 27.56 2.89 41.3 3.45-.74-5.42-89.51-6.38-99.55.09 2.41 1.83 23.17-2.25 18-.17-.22.34-5.68.1-6.55-.62-2.2-2.89-3.63-4-5.25.21.3-3.93-7.38-3.93-5.88 0-2 2-1.49 2.12-2.14.33-2.51 2.22-1.5.16-5.06-.91-1.57-5.59-2-6.82-1.79.53-6.5 1.47-2.94 4.4-2 .78.25 1.94-.73 2.77-.29 1.1.58.39 1.83 1.36 2.75 2.72 2.55 3.48 1.13 6.05 1.55 3.56.59 5.85 2.12 9.51 2.25 1 0 1.52-.73 2.74-.38.52.15.73 3.07 1.68 3.43s1.75-1.55 2.54-1.29 2.81 2.09 3.4 2.21c2.4.49 3.23-1.21 5.67-1.81 2.61-.64 4.74.45 7.26 1.41 3.52 1.33 4.26 2.32 6.83-2C63 16.25 64.8 16 65.94 20.07c.7 2.51 1.27 13.2-1.27 13.72-1.36.27-3.2-4.21-4.42-5.37A12.14 12.14 0 0 0 55 25.61c-2.16-.64-7.38-2.38-8.91 0-1.62 2.57 0 14 .07 17.67.11 6.37 1.77 13.38 1.44 19.6-.17 3.28-2.21 6.54-1.15 11.55.59 2.74 4.18 7.32 2.07 9.93-.79-.2-1-2-1.91-1.1.13 3.76-.35 9.37.79 12.86 1.06 3.22 1.52-.84 2.53 3.25.66 2.69-.91 6.6-1.19 9.33a55.7 55.7 0 0 0 .17 10.88c.52 6.08-.3 47.1 3.37 47.2zm-14.19 87.35c0 .22.29 6.08 1.1 3.86a3.76 3.76 0 0 0-1.1-3.86z" fill="#fa194a"></path><path d="M69 80.76c-2.8-6.76-3-19.45-3.75-27.15a32 32 0 0 1 .13-7.38c.26-3.21-.15-8.35.27-12.3 2.73 5.52 1.89 16.5 2.44 22.82.74 8.25.77 15.8.91 24.01zM0 6.81c1 0 4.82-.88 5.35 1.19C6.6 12.69 4 10 3.17 11.32s-1.4 1-2.13 3.39S.93 22.88.9 25.64A141 141 0 0 1 0 6.81zm2.82-5.75C2 2 1.44 4.13 0 2.46.56.1 1.35-.95 2.82 1.06zm40.7 230.38c3.58 2.54-.23-.13 2.72-2.84 2.6 3.16 1 21 .43 24.39-.66 4.12.15 8.22-.66 12.28-2.68-3.18-2.34-29.47-2.49-33.83zM15.65 37.85c-1.24-.52 1.57-3.16 1.47-3s2.11 4.29-1.47 3zm17.62 176.79a9.89 9.89 0 0 1 0 8.34c.01-2.78 0-5.56 0-8.34zM14.89 60.74c-.63-1.19-.6-2.13.08-2.81 1.03-.66 1.57 3.62-.08 2.81zm10.49 205.95c-.74-1.27-.76-2.33-.06-3.16 1.54-1.16.83 3.87.06 3.16zm29.05-5.04a1.67 1.67 0 0 1 0-2.11 1.67 1.67 0 0 1 0 2.11zm-32.26-57.98a1.86 1.86 0 0 1 0 2.61z" fill="#fa194a"></path><path d="M23.76 204.76c0 3.26-1.44 2.74-1.65 4.34-.16 1.18.08 4.49.06 5.66 0 1.49-1.14 12.13.12 13 2.54 1.83 2.56-6.52 2.62-7.83.43-9 1-21 0-29.74-.16-1.3-.24-2.29-1.12-2.57q-.04 8.59-.03 17.14zm4.15 25.6a3.49 3.49 0 0 0-1-3.75c-.01.21.09 5.84 1 3.75z" fill="#fa194a" opacity=".85" style="isolation:isolate"></path><path d="M65.93 32.45c-1.83 3.22-2.65-.64-4.1-2.23a14.87 14.87 0 0 0-8.69-5c-2.26-.45-6-2.23-7.36 1.12s.33 14.81.41 18.8c.23 11.38 1.67 23.28 2.47 34.54.32 4.61 2.87 16.78 1.38 22 .4 15.51 1.41 31 1.58 46.54.09 8.21.92 21.3 1 29.51 0 7.56-1.74 14.87-.9 22.46.76 6.79 1.71 14.18 1.87 21.72.08 3.73-.54 7.84-.26 11.48.18 2.35 1.87 19.23 2.17 21.81.65 5.73-1.24 12.17-2.29 3.65-1.09-8.87-1.26-33.5-1.9-42.51a56.74 56.74 0 0 0-1.56-11c-.11-.41-1.88-4-1.89-4.86 0-3.21 1.24-1.19 1.77-3.66.69-3.26-.11-10-.41-13.5-.39-4.51-1.45-9.75-3.84-3.7-.62 1.58-.9 16.29-.73 17.91.27 2.47 1.62 4.93 1.72 7.35a75.63 75.63 0 0 1-.69 9.27 78.39 78.39 0 0 0 .9 20.86c.22 1.36 1.78 19.92 1.84 21.28.11 2.64-1.07 4-1.36 6.42-.52 4.31.16 8.59-.64 12.79-3.12-3.85-1.92-18-2.11-23.43-.13-3.92.17-40.87-2.08-42.79 0 0-1.62 16-1.6 17.36.09 5.63 2.48 24.39 2.3 30.19-.15 4.75-.47 4.76-2 7-.92 1.33-1.65.44-2.62 2.68-.8 1.84.61 4.32-.89 6.58-2.51-5.95-2-32.92-2.23-39.7-2.33 3.16-.44 20.77-.55 24.67-.06 2.38-.92 1.59-1.11 3.63-1 10.56 1 21.82.24 32.6C30.91 285 30.61 189.86 28 189.87l1.41 38.81c-4-.86-2.69-19-2.86-23.51-.27-7.37-1.54-14.81-1-21.57.73-9.94-.91-24.86-1-34.87-.1-9.22.15-18.42 0-27.64-.11-7.61.3-17.31-1.09-24.81-.7-3.81-2.58-5.59-2.08-9.72.53-4.33 2.06-5.08 1.78-10.16-.43-7.64-2-15.33-1.8-23 .14-7.13 1.25-14.38 1-21.44-4.25 4.56-1.65-2.59-3.84-7.11-.93-1.91-6.87-7.88-6.86-9.29 0-4.25 5.83-1 2.28-7.2C13 6.6 8.53 6.6 7.16 6.57q-1.74-2.78-2.67-.12c-.49 1.07-1.19 1.18-2 .32-1.39 8.23 8.81 2 4.13 8.73-1.54 2.22-1.57-1.11-2.7 2.42-.79 2.45.14 9.2.25 12C5 50 6.74 70.1 7.86 90.18c2.37 42.59 2.64 90.35 4.39 133 .85 20.74 1.19 56.5 2.28 77.22 1.06 20.14 4.35 40.4 3.07 60.52-.25 4-1.11 8.32.81 11.82 2.91 5.33 2.12.18 4.67.42 1.28.12 3.88 2.23 6 3.26 3.19 1.55 2.28 2.25 5.59 1 1.6-.6 1.9-2.77 4-2.12 5.06 1.6 3.52 8.69 7.58-.91 2 6.56 7.35 4.39 11.09 4.66 5.25.38 10.44.49 15.68.68 5.45.2 7 1.15 7.87-7.52a172.5 172.5 0 0 0 .55-25.21c-.89-17.07-3.47-34-4.18-51.12-.73-17.44-1.28-49.89-2-67.34-1.52-36.65-2.16-78.37-3.93-115-.79-16.54-2.62-32.25-4.69-48.42-.61-4.53-2.71-12.39-2.11-16.68.3-2.16 1.57-2.15 1.83-4.2.12-.9-.26-11.24-.43-11.79zM19.29 41.6c-1.3 0 1.48-3.42 1.27-3.12s2.21 4.19-1.27 3.12zm0 22.88c-.66-1.17-.67-2.11 0-2.81.99-.67 1.71 3.56 0 2.81zm19.49 219c0 3.83-1.86.46-1-3a4.55 4.55 0 0 1 1 3zm-.87-6.48c.5.42.33 2.51 0 3.3-.51 1.62-1.75-4.74 0-3.3zm17.25-6.4c0-3.73-.67 6.7-.75 0 .24-1.47.49-1.46.75 0z" fill="#fa194a" opacity=".85" style="isolation:isolate"></path></svg>