<svg xmlns="http://www.w3.org/2000/svg" viewBox="0 0 78.81 445.9"><path d="M5.64 346.43c-2.34.05-.27-56.51 0-63.31.08 21.1.27 42.21 0 63.31zm38.05-57.58c-1.3 29.58-.92 59.31-1.58 88.94q-.88-38-.23-76 .28-17.55.89-35c.3-8.71-.76-33.52 2.8-37.09 0 9.38-.41 19.28-1 28.8-.57 10.18.24 20.77-.88 30.35zm-3.08-83.05c-3.51 6.51 2.42 26.52-2 31.61-.59-8.46-2-62.88 3.13-63.91.26 10.81-.89 21.34-1.13 32.3zm26.04 19.79c2.16 2.1 1.91 19.11-.15 18.87-1.06-.13.1-17.27.15-18.87zM36.9 327.58c-1.62-4.55-1.54-7.18-.41-10.77 1.51 3.19 1.06 5.99.41 10.77zm15.01 14.82c-.21-4.42-.93-8.52.28-13.78.69 5.65.6 9.91-.28 13.78zM9.65 314.46c0 5.89.23 13.71-2 17.93-.88-5.52-.59-14.16 2-17.93zM8.64 360c-.32 6.14 1 12.66-1 18.15-.46-5.79-1.89-17.87 1-18.15z" fill="#fa194a" opacity=".65" style="isolation:isolate"></path><path d="M13.62 53.27c-2.91-.26-3.75 49-4.93 56.74.67-29.87 1.61-59.8 4-89.35 1.71 5.15.27 11.28 0 16.73-.27 6.07 1.02 10.45.93 15.88zm-9.98 360.4c0 3.11-2 3.84-3 2.36-1.18-1.7-.09-18.17-.07-20.64.07-8.42-2-39.25 1.34-44.06.85 7.42-2.07 63.08 1.73 62.34zm.3-192.87c1.59-11.87 0-24.29 2.11-35.61.51 12.05-.35 29.6-2.11 35.61zM3 256.59a196.27 196.27 0 0 1 1-29.09c.94 9.3.74 16.5-1 29.09zm10.89 4.95c-1.08-17 1.65-34.16 1.42-51.21-.2-14-.67-27.84.8-41.94 1.09-10.39 3.26-88.33 5.41-88.85 3.65 11-2 23-1 33.74.35 3.5 1.67 1.57 2.06 5.46.28 2.72-.91 8.35-1.09 11.28-.64 10.47-.64 21.16-1.13 31.67-.91 19.53-1.67 39.07-2.64 58.59-.45 9.11-.85 18.22-1 27.36-.16 7.54 1 20.49-1.19 27.16-.94-4.46.76-9.86-1.64-13.26zm9.85-67.75c-1.3 30.3-2.82 60.47-3.3 90.89-.24 15.4-.36 30.8-.53 46.21-.17 14.62.61 30.81-1.95 44.79 0-39.22.55-78.31 1.28-117.49.37-19.65 1.15-39.07 2.26-58.61.68-12.15-.32-37.08 3.88-44.93-.46 11.55-2.57 28.77-1.64 39.14zM11.71 389.48c.07-10.64-2.39-41.73 2.78-47.26.14 7.29 1.19 14.64.16 21.88-1-4.87.26-9.81-1.82-14.07 1.67 13.51.06 26.48.8 40.08zm.85-59.1c2.44 3.69 1.23-31.72 2.82-35.7a390.63 390.63 0 0 1-.75 45.65c-.63-2.91-3.63-6.88-2.07-9.95zm17.81-17.75v48.84c-.54 0-1.76-48.13 0-48.84zm-18.55 89.8c1.27-.37 1.26 7.62.85 9-1.12 3.65-.87-8.77-.85-9zM13.74 275c1.9 3.37.9 5-.94 6.1a11.22 11.22 0 0 1 .94-6.1z" fill="#fa194a" opacity=".35" style="isolation:isolate"></path><path d="M14.65 98.84c0 3.55.46 8.21 0 11.54-.42 2.91-1.28 2.14-1.63 4.73-1.1 8 .52 13.19.57 20.86 0 3-3.06 27.92-2.44 28.33.3.2 1.54-2.12 1.71-1.2s-.1 3.72 0 4.26c1.56 5.88.84 11.54.18 17.49-2.08 19-2.3 38.25-2.55 57.58-.12 8.84-.12 16.42-.93 25-.69 7.32-1.34 15.08-1.33 22.66 0 7.11 2 15.18 1.37 22.14-.72 7.39-3.41 11.11-2 20.21-3.35.19-1.85-10.79-1.87-16.35q0-11-.08-21.95c0-13.06 0-26.06.42-39.1.81-28.26 2.12-56.52 3.34-84.72 1.21-27.94 2.29-55.8 3.11-83.79.14-5 0-11.13.71-16 1.57-10.32 1.56-3 1.38 2.61-.22 7.66-1.03 18.65.04 25.7zM12.59 403.7c2.59 3.94 2.74 12.57.84 16.08-3.2 5.93-8.32 2.15-9.73-4.71-1.37-6.64 1.3-68.63 1.94-68.64a31.57 31.57 0 0 0 .51 8.12c2.71-5.43.53-14.32 2.67-20.44a77.08 77.08 0 0 1 .49 17.79Q9 356 8.64 360c-1-.6-1.82-.27-2.49 1 0 .81 1.34 7.8 1.41 9 .28 4.9-.26 9-.55 13.7-.56 8.64 1.25 19.88-1.72 27 .79.71 7.73-.42 7.39.7.49-1.64-.03-6.11-.09-7.7zm3.09-360.34c-.49 6 .05 12.48-1.82 17.76-.33-10.68-.9-31.61 1.86-40.87-.56 6.94-.03 15.96-.04 23.11zM17.67 2.3c-.56 4.18.57 16.71-1.92 17.41-.61-4.87-.98-15.27 1.92-17.41z" fill="#fa194a"></path><path d="M11.71 389.48c2.84.93 2.51 12.26.11 12.95q-.06-6.43-.11-12.95zm-3.02-59.06c.06-2.11-.11-4.37.93-5.87-.02 2.13.2 4.45-.93 5.87z" fill="#fa194a"></path><path d="M6.51 360.4c-.29.89-.24 1.48.16 1.77.39-1.73.33-2.33-.16-1.77z" fill="#fa194a" opacity=".85" style="isolation:isolate"></path><path d="M66.44 417.62c1.47-20.59 0-42.66.28-63.45.26-18.39.5-38.25.76-57.3.61-44.28 3.44-88.58 5.23-132.79 1.79-44.5 4-89 5.6-133.52C78.57 23.2 79.82 11.93 77 7c-.67-1.19-6.22-4.65-6.9-4.67-1.63 0-2 2.13-3.53 2.43-4.25.86-8.43-2.55-12.75-1.6-.56.12-10.2.23-10.2-1.45-1.76-3.35-3.34-.08-5.65.12C36.15 2 34-.43 32.29.11S29.54 2.21 28 2.28c-1.73.08-3.83-2.44-5.78-2.28-6.34.68-4.29 7.42-4.9 16.63-.19 2.82-1.39 2-1.67 4.77-.61 6 1.15 11.92 0 18 1.4-.15 2.32-1.53 2.76-4.12-.38 2.69-5.2 5.86-2.08 8.34.43.35-3.22 18.34-2.68 21.46.25 0 3.34 13.36 2.83 15.7A10.4 10.4 0 0 0 14.61 73c-1.56 3.72-.39 9.8 0 13.9.19 1.88 1.09 9.13.7 10.38a5.12 5.12 0 0 0-.69-4.46c-1.6 1.93.49 13.86 0 17.48-.45 3.12-1.38 2.76-1.91 6-.69 4.33-.06 9.42.21 13.67.21 3.43-1.66 34.29-1.8 34.2.43.29 1.7-2.68 2-.93s-.08 4.9 0 7.07c.4 9.1-.23 15-1 24.63-1.69 21-.36 42.18-1.53 63.05-.48 8.51-1.76 16.46-2.05 25.28-.32 9.32.65 17.3 1 26.49.33 7.81 1.55 22.05-3.77 22.6-.07 5.31-1.31 17.26.33 22.06C8.81 349 6.63 340.1 8.77 334c2.24 12.66.29 32-1.16 44.22-1.11 9.42.74 25.17-2.33 32.5 7.73 6.82 6.44-12.69 6.43-21.22 0-14.54.06-29.23.74-43.59.65-13.62.17-28.2.24-42.87.07-12.7 1.15-24.88 1.15-37 0-17.77 1.07-35.18 1.37-52.95.25-15-.63-29.53.9-44.7C17.37 156 17.79 143.48 18.6 131c1-14.94 4.23-43.21.66-56.11 2.1 7.58 3.28 9.25 3.5 20A3 3 0 0 0 23 91.4c1.58 2.76-4 13-1.26 17.65-.68-1.14-1.23 1.89-1.06 3.08.25 1.69 2 3.74 2 4 .57 5.92-1.23 16.09-1.42 22.43-.55 18.51-1.43 37-2.23 55.45-1.49 34.28-4 69.36-3.55 103.5.34 26.1 0 52.63-1.31 78.51-.37 7.25-.44 14.42-.74 21.66-.08 1.83-1.06 3.64-1 5.4.1 3 1.93 6.62 2 10.13.16 6.33-.28 1.88-1.8 8.19 1.26 2.25 2.68 5.24 4 5.77.66.26.91-3.15 1.22-3 1.47.63 4 3.39 6.17 4.45 7.38 3.65 15.59 2.68 22.63 7.15 3.45 2.19 6.44 6.75 10.12 7.69 1.56.39 3.67-1.11 5.06-.44.25.12 2.16 2.09 1.84 2.17 1.94-.45.91 3.36 2.38-3.12 1.62-7.07.65-17.07.39-24.45zM17.19 138.37c-1.11-.63-1.55-2.18-1.61-4.06.06 1.88.5 3.43 1.61 4.06zm19.23 9.3c-.08.88-.3 1.57-.69 1.78.39-.21.61-.9.69-1.78zM51.91 342.4c-.21-4.42-.93-8.52.28-13.78.69 5.65.6 9.91-.28 13.78zm7.33-44.26l-.76 2.13c.34-2.27.6-2.94.76-2.13zm8.69-66.63c-.26 6.45-.67 18.16-1.77 8.64-.46-4 1.7-12.07.22-15.16 1.16 2.43 1.18 3.26 1.54 6.52.69-12.1 1.42-24.21 1.61-36.39-.19 12.18-.91 24.29-1.6 36.39zm-24.31-59c-1.89-1.9-2.61 13.5-2.94 17.63-1 12.85-1.1 26.18-.9 39.38a3.41 3.41 0 0 1 3.27.8c-4.11-5.72-2.54 4.9-4.45 7.09-.59-8-1-70.95 5-64.91zm-5 64.91a14.32 14.32 0 0 1-1.47-3.66q2.28 2 1.45 3.65zM18 346.4c.48-44.27.35-89 2.73-133.13.54-10 1.16-20.08 1.69-30.13.32-6-.29-22.91 1.58-27.33.42-1 1-.45 1.4-1.16-.2 3.87-1.93 30.85-.8 31.48-.73-.4-.72 7.52-.62 7.37-2.36 3.64-1.75 33.28-2 39.83q-1.05 24.18-1.44 48.46c-.26 15.4-.38 30.81-.55 46.21s.72 32.93-2 47.68c.01-9.76-.12-19.52.01-29.28zm12.4 15.07c-.54 0-1.76-48.13 0-48.84zm6.12-44.66c1.55 3.2 1.06 6 .41 10.77-1.65-4.57-1.57-7.18-.44-10.77zm5.12 20.78q-.07-44.22 1.83-88.34a3.16 3.16 0 0 0-2.78 1.5c3.16-4.3 2 3.08 2.86-7.54.45-6-1.15-10.32 2.05-13.54 0 10.74-1 20.28-1 31.44a60 60 0 0 0-.92 13.45c0 3.8.57 6.28.51 10.22-.08 5.16-.75 10.66-.92 15.92-.78 25.67-.57 51.41-1.14 77.09q-.48-20.09-.52-40.2z" fill="#fa194a" opacity=".85" style="isolation:isolate"></path></svg>