<svg xmlns="http://www.w3.org/2000/svg" viewBox="0 0 65.53 346.09"><path d="M58.9 228.64c2.23-4 1.86-6.07 1.51-10.91-.31-4.27.42-4.94.87-8.83.82-7.06 1.21-17.31.34-24.59-.65-.87-3.84 5.25-2.57-4.11.77-5.69 3.74-7.77 3.47-14.52-.27-7.06-2-9.1-.76-15.93a98.08 98.08 0 0 0 1.36-19.51c-.11-4.86 0-10.52-.68-15.14-1-6.71-2.82-10.79-2.25-18.36.61-8.12 1.5-15.92 1.57-24.16 0-4.83-2.17-20.66.22-24.53 4.31 50 1.41 100.46.61 150.36-.41 24.93-1.19 49.87-1.38 74.82q-.14 18.48.82 36.94c.33 6.39 3.42 28.7-.71 32.47-.5-5.07.48-10.39.43-15.51-.06-6.3-.52-12.63-.85-18.91-.37-7-.74-14-.74-21 0-2.49.54-6 .16-8.41-.29-1.87-1.57-.61-1.47-2.84s1.19-1.31 1.37-3.23c.22-2.39-.37-4.48-.56-7-.48-6 .15-11 .78-16.83.89-8.3-1.39-11.91-1.54-20.27zm.62 115.19c.1-.65.37-.89.81-.76zm-7.08-85.15c3.54.11 1.57 16.77 1.64 21.52-3.71-5.15-1.98-14.2-1.64-21.52z" fill="#fa194a" opacity=".65" style="isolation:isolate"></path><path d="M60.39 245.73a1.55 1.55 0 0 1-.75-1.35c.94-.6.53.81.75 1.35z" fill="#fa194a" opacity=".65" style="isolation:isolate"></path><path d="M65.27 55.77c-1.75-6.86-.61-14.28-.86-21.36-.22-6-2.87-15.09-1-20.57 1.79 5 1.47 13.07 1.71 18.45a209 209 0 0 1 .15 23.48zM52.79 73.21c.82-4.91 0-10.14.32-15.14 2.19 7.4 2.15 13.95 2.28 21.78.13 7.52 1.19 14.84 1.56 22.33.8 16 .7 32.15 0 48.13s-1.36 32.26-1.32 48.37q0 10.77-.19 21.55c-.12 6 1.16 19-.9 24.18-1.84-5.31-2.24-9.7-2.3-16.43 0-3.81.09-8 .06-12-.1-16 .56-32.19 1-48.19.91-31.57 1.49-62.92-.51-94.58zm-4.65 149.86c-.19-27.28.89-54.39 1.63-81.59.35-13-.33-26.12-.5-39.19-.2-14.59-1.9-30-.43-44.45 3.44 30.5 2.94 62.21 2.33 92.8-.33 16.18-.78 32.36-.94 48.55-.04 4.49.77 24.45-2.09 23.88zm1.96 3.03c-1 7.17.55 14.72-1.08 21.75-1.34-3-1.5-6.53-1.52-10-.01-1.85.64-16.53 2.6-11.75zm4.16 30.03c-1.42-4-1.52-7.9.31-11.56a37 37 0 0 1-.31 11.56z" fill="#fa194a" opacity=".35" style="isolation:isolate"></path><path d="M58.9 228.64c-3-5.78-.93-11.77-1.12-18.08-.1-3.15-1.91-6.46-2-9-.07-4.56 1.2-1.63 1.25-4.15-.1-1.1-.52-1.62-1.26-1.55l-.11-4.27c-.46-4 .25-8.68.36-12.75.24-8.84.44-17.66.82-26.49.69-16.08.68-32 .12-48.18-.26-7.54-1.4-14.92-1.58-22.48-.2-8.43.06-15.56-2.32-23.59-.33 5 .5 10.23-.32 15.14-1.4-15.67 1.66-32.55-1.41-47.92-1.26-6.31-2.76-3.42-6.94-5.11C39 18 35 18.59 29.27 18.43a146.87 146.87 0 0 1-17-1.66c-2.11-.31-5-.46-6.83-2.29-3-3-1.39-2.8-1.36-6.32C4 9.53 5.32.67 4 3 5.47.41 6.86 1.79 9.07 2.42c4.4 1.24 9.05 4.58 13.49 4.66 5.42.15 10.54-.17 16.06.59 1.82.25 3.67.84 5.48 1 1.33.14 3.67-1 4.46-.74 1.42.48 2.46 3 4.15 3.57s3.44-1.14 5-.6c4.07 1.41 3.35 7.25 3.74 13.15a185.32 185.32 0 0 1 .12 25.16c-.57 8.15.28 17 .14 25.46-.14 8-1.21 15.65-1.65 23.56-.43 7.59 1.64 12 2.66 18.88s.42 16.27.26 23.4c-.17 7.62-2.51 11.66-1.41 19.07 1 7 .84 10.54-1.19 16.89-1.15 3.59-2 5.64-.87 9.72.25.88 1.61-2.56 2.09-1.91.87 7.28.48 17.53-.34 24.59-.45 3.89-1.18 4.56-.87 8.83.37 4.87.74 6.93-1.49 10.94zm.03 48.58c2.28.71 2.16 34.09 2.42 39.4.34 7.07 3.13 29.82-4.66 27.84 2.07-12.11 3.62-20.83 2.22-33.79-.71-6.55 0-12.78-.53-19.29-.38-4.25-3.05-11.5.55-14.16zm-7.07 66.45c.23-4.82 2.47-.9 3.86.75a4 4 0 0 1-3.86-.75zm8.53-97.94c0 5.45-1.14 10.48-1 16 .09 3.25 2.52 11.87-.63 12.9-1.14-7.67-3-11.46-2-19.64.69-5.89.45-12.33 2.3-17.75 2.54 2.21 2.17 4.86 1.29 8.52-.32-.61.34-2.06-.71-1.4a1.56 1.56 0 0 0 .75 1.37z" fill="#fa194a"></path><path d="M49.36 53.92c-1.53-1.31-3-14.3-2.44-16.65.81-3.08 2 .46 2.27.86 1.29 2.04.5 13.28.17 15.79zm.74 172.18c-.47-1-1.07-1.23-1.79-.8-.62-1.69-.46-2.49.48-2.41 0 .94 1.73-5.92 1.69-5.87 1.2 1.28-.94 5 1.91 3.31 0 2.55.89 5.28-.12 7.65-.47-1.31-1.2-1.93-2.17-1.88zm2.06 51.43c2.27 3.16 2.46 4.88.31 8.53-1.77-3.01.53-5.49-.31-8.53zM50.2 206c0-3.11.95-3.66 2.48-5.76a23.45 23.45 0 0 1-.16 7.66 2.55 2.55 0 0 0-2.32-1.9zM24.69 24.3c.85.13 1 .69.51 1.69-.86-.12-1.03-.68-.51-1.69zm29.24 246.04c.22-.52.43-1 .65-1.57-.22.52-.43 1.05-.65 1.57zm-1.55-52.94a.91.91 0 0 1-.14-1.29l.09-.1zm-2.25-10.33c-.1.58-.2 1.16-.29 1.74z" fill="#fa194a"></path><path d="M2.82 197.37C2.74 219 2 240.52 1.38 262.09c-.55 20.57 1 40.86 1.26 61.41.07 5.16-2.16 17 .94 20.47 3.71 4.1 13.33 1 17.42.91 5.49-.12 11.39 1.53 16.75.66 2.82-.46 5.75-.41 8.57-.94 2.29-.43 3.16-1.8 5.54-.93.29-6 2.4.91 3.86.75s2.2-5.19 2.68-7.41c1.77-8.13 1.54-16.07.7-24.56a146 146 0 0 1-.53-14.79c0-4.76-1.71-10.4-1.49-14.8.14-2.69 1.58-3.79 1.85-5.64.35-2.42-.48-5.87-1-8.09-1.16-5.23-2.35-6.65-1.53-12.54.41-3 1-5 1.18-8 .14-1.92-.2-3.92.06-5.92.89-6.88 1.18-9.45.15-16.9-1.1-8 1.57-17.22-2-24.28-.3 15.4-.36 31.17-1 46.32-.26 6-.35 11.55-.36 17.58 0 5.7.71 16.09-2 20.63-1.06-1.8-1-9.29-1-11.71s1-5.2 1.17-7.73c.17-3.17-.19-6.59-.27-9.78-.11-4.78 2.48-30.65-2.25-30.74-1 7.17.55 14.72-1.08 21.75-1.92-4.34-1.58-9.72-1.33-14.53.37-7.36.4-14.39.4-21.82 0-16.16.68-32.2 1-48.32.36-16.93.8-33.6.38-50.58C49 94.88 47 75.2 48.8 57.8c5.4 47.84 2.15 97.45 1.32 145.35 4.64.55 2.86-22.59 3-26.72.31-13.54.94-27 1.09-40.58.15-14 .13-28.07-.18-42.08C53.73 80.2 51.6 67 52.6 53.44 53 47.66 52.29 42 52 36.1c-.13-2.94.25-13-1.14-14.75-1.07-1.36-5.57-1.11-7.15-1.74a20.91 20.91 0 0 0-10.38-1.35c-7.44.54-18.83 1-26-2.67C6.17 15 3.92 14.15 3.39 12c-.65-2.6 1.07-2.61 1.13-4.64C4.59 5.18 3.85-.11.92 0c-2.41 14.77.6 33.92 1.27 49.13.72 16.35 1.59 32.73 1.94 49.09.71 33.13-1.19 66.08-1.31 99.15zM24.43 25.48c-.26-.87.6-2 1-.66.02 1.35-.32 1.57-1 .66zM47.84 50.3c-.31-2.39-1.73-14.19.19-13.93 2.46.34 1.61 15.38 1.33 17.55a4.45 4.45 0 0 1-1.52-3.62z" fill="#fa194a" opacity=".85" style="isolation:isolate"></path><path d="M57.08 197.38c.13-1.89-1.22-2.29-1.42 1.3.71.11 1.19-.32 1.42-1.3zm-4.69 22.95c0-3.19.43-17.39-2.26-13.26-1.88 2.93.28 14.44 2.26 13.26z" fill="#fa194a" opacity=".85" style="isolation:isolate"></path></svg>