<svg xmlns="http://www.w3.org/2000/svg" viewBox="0 0 72.64 347.92"><path d="M21 113.92c-1.35-7.87-.85-16.55-.44-24.24a93.11 93.11 0 0 0 0-11.33c-.19-2.79-1.73-8.84-1-11.09 1.55-4.94 2.74-.85 3.6 2.64s-.31 7.87.2 11.36c.38 2.67 1.17 3.94 1.34 6 .37 4.35-.59 6.44-.58 10.79 0 8 2.26 16.78 1.53 24.67-.56 6.06-2 7.1-1.76 14.29.11 4 .95 13.07-1.35 15.19-.49-6.26-.39-12.09-.71-18.5-.23-4.52 1.56-16.7-.83-19.78zm2.13 45.25c3.16-1.09 2.53 13.83 2.54 17.49 0 7.33 1.37 17.52.15 24.53-2-7.62-2.05-15-2.34-22.86-.14-3.88-2.05-16.33-.35-19.16zM40.51 49.1c-3.63-3.53-4.77-8.18-4-14.55.35-2.86 1.81-12.47 3.27-13.25.22 9.26-.11 18.5.73 27.8zm-.04 52.9c.31.71 1.68 6.68 1.77 7.21.75 4.61.84 9.81 1.24 14.5-3.79.96-4.37-18.28-3.01-21.71zm2.4 83.65l1.52-1.76c.13 6 2.91 11.24 1.57 17.29a48.37 48.37 0 0 1-3.09-15.53zm-1.19-52.95c1-1.16.18-3.81 1.37-4.75 1.6 3.77 0 7.77.9 11.71-2.48-2.32-3.01-2.4-2.27-6.96zm2.41 27.75a22.4 22.4 0 0 1-2.44-8.57c2.12-1.48 3-.53 2.72 2.84a10.35 10.35 0 0 1-.28 5.73zM29 166.14c-1.71 3.66-2.27-4.82-.62-7.37q.27 3.69.62 7.37zm12.74-3.83c1.49-.53 3.87 1.84 2 4.07-1.32-3.7-1.47 1.62-2-4.07zM18.93 28.88c.67 4.78 1 9.65-.11 14.05-.15-2.75-1.56-13.93.11-14.05zm3.31 30.55c.74 3.4-1.36 3.66-1.57.17z" fill="#fa194a" opacity=".65" style="isolation:isolate"></path><path d="M9.46 1.74c.74 4.18-3-.44-1.57-1.56.79-.64.87 1.51 1.57 1.56zm21.98 85.38c-.63-24-1.48-48.07-.94-71.94 1.05 18.58 1.67 36.55 1.86 55.1.08 7.39 1.3 13.1 1.27 20.5 0 6.74 1.42 13.07 1.64 19.54 1.2 35.31 2.11 71.5 3.88 107.44-1.26.43-2.46-28.4-2.67-32.14-.7-12.86-1.78-25.83-2.22-38.67-.16-4.77 0-9.29-.33-14.11-.34-5.35 1.06-8.32.48-13.58-1.17-10.63-2.34-21.73-2.97-32.14zM27.08 147c-1.53-3.68-.51-8.77-.69-12.71-.28-5.94-.65-11.73-.93-17.72-.2-4.32-3.46-23-.46-24.7.41 10.19.84 20.38 1.19 30.56C26.46 130 29 140 27.08 147zm13.39-45c-.93-4.89-2.47-25.5.32-27.25 1.49 10.07 1.85 24.32 1.45 34.46-2.05-1.59-.73-4.87-1.77-7.21zm-11.39 94.94c-.16-3.25-1.34-6.62-.14-9.71.06 3.24 1.38 6.62.14 9.71zM24.59 85.7c-3.57-.12 1.35-21.93-3.94-21-1.86.33.06 24.57-.55 28.68a282.94 282.94 0 0 1-.46-45.75c.22 2.59.14 12.08 1.3 14 1.9 3.08 1.35-3.07 1.51-4.07.92-5.73-2-20.63 1.11-23.7.6 17.28-.27 34.48 1.03 51.84z" fill="#fa194a" opacity=".35" style="isolation:isolate"></path><path d="M43.14 9.25c-.53 2.52-3.08 2-2.72 5.37.4 3.81 2.66 2 3.92 2.46 2.06.85 12.3-.37 13 1.21 2 4.54-10.87 1.82-11.71 1.74-5.32-.48-6.38.65-7.64 8.1-1 6.08-3.31 11-.25 17.35a14.48 14.48 0 0 0 2.76 3.62c0 2.85.06 5.69.1 8.54 0 4.1.52 8.86.13 12.81a179.74 179.74 0 0 0-1 20.75c.1 8.79-.13 16.56.68 25.41-5.49.33-2.79-15.44-2.77-19.8a52.94 52.94 0 0 0-2-13.65c-1.51-4.28-2.21-1.47-3.22-6.78-1.57-8.25.09-20.13-.15-28.61-.32-11-1.15-21.62-1.77-32.59-.28 12.12-.2 24.3 0 36.49.21 11.32 1.71 24.41.91 35.45-.23 3.14-.79 6.29-.78 10.22 0 4.83-.39 9.59-.12 14.47.64 11.3 1.94 20.15.78 31.3-2-4.41-1.07-10.23-2.71-14.87-1.49 2.15 0 5.12-1.17 7.22-1.9-7.57-1.37-17.33-1.68-25.15-.32-8.21-.65-16.4-1.17-24.61-1.11-17.38-.43-34.53-1-51.87C19.5 37.84 26.5 59 20.67 59.6l-1-12c-1.43 18 .24 35.77.58 54 .15 7.92 1.14 15.69 1.39 23.58.13 4.27.21 8.49.47 12.77 0 .39.75 13.48-.43 5.5-.34 4.19-.35 8.53-1.11 12.55-2.14-1.56-1.76-8.87-2.27-11.79-.48-2.73-1.17-3.79-1.19-6.58 0-3.08 1.17-6.71 1.23-10 .24-13.29-1.64-28.21-2.54-41.63s-.09-27.18-1.1-40.64c-.33-4.39-.82-8-.94-12.39-.16-5.88-.57-15.39-2.86-20.54 2.37.14 2.71-.4 4.17-2.2.51-.63.41-2.59 1.05-3.49.78-1.04 3.48-1.34 4.37-1.12a37.06 37.06 0 0 0 6 1.39c2.78.27 2.82-.69 4 4.53 1.12-3.16 3.44-2.8 5.09-4.7 2.2 9.87 5.07-2.76 7.56 2.41zM18.93 28.88c-1.57.12-.26 11.24-.11 14.05 1.18-4.4.78-9.27.11-14.05zm37.36-17.83c-1.16 1.75-4.29 2.84-5.18 1 2.3-.65 2.38-5.13 5.18-1z" fill="#fa194a"></path><path d="M47.58 11.27c-.12 3.38-2.31 1.79-2.55-.92a3 3 0 0 0 2.55.92zm3.32.28a1.14 1.14 0 0 1-.68-.88c.52-.37.66.12.68.88zM22.53 152.18c4.51-4.16-2.39-23.21 3-25.37 1.19 5.39.11 10.47.78 15.7.56 4.43 2.27 7.16 2.3 11.73 0 2.5-3.07 10.53-1 12.75 1.11 1.17 2.41-2.93 3.31-2.85 4 .32-2.31 8.9-3.48 9-5.12.6.39-15.64-4.35-14zm20.34 33.47c-.72-3.07-2.89-25.33.86-19.27 1.22 2 1.35 10.45 1.27 12.91-.18 5.51.89 2.87-2.13 6.36zm-17.22-.02c-.64-4.55.82-13.68 3.45-7 .35.91-.05 5.36-.09 6.07a95.83 95.83 0 0 0 .07 12.22c-2.19-2.35-.44-10.99-3.43-11.29zm15.92-33.86c-.22-3.49-3.76-14.64.37-14 2.54.4 1.66 10.32 2.19 14-1.01 1-1.86 1-2.56 0zM7 16.3C5.66 14.25-1.41 10.06 3.92 9c2.44-.48 7.47 6.47 3.08 7.3zm34.23 104.62c1.56 5.23 2.74-.83 1.82 7a22.45 22.45 0 0 1-1.37 4.75c-.28-4.59-4.62-9.34-.45-11.75z" fill="#fa194a"></path><path d="M41.74 162.31c-.12-1-2.7-12.34-.13-10.48.5.36 2.63 10.66 2.7 11.6a3.28 3.28 0 0 0-2.57-1.12zm-7.08-59.43a33.37 33.37 0 0 1-1-12.1c2.16 2.28 1.14 8.89 1 12.1zM34.18 126l-.67.67c-.43-5.07-1.79-10.26-.69-15.16.63 4.8.57 9.7 1.36 14.49zm-13.09 44.41c-1.83-3.18-1.95-5-1.21-7.43 1.75 1.75 1.17 3.91 1.21 7.43zM31.14 88a14.9 14.9 0 0 1 .56 7.94 35.82 35.82 0 0 1-.56-7.94zM34 134.9c.28 2.69.73 5.4.08 8-.26-2.71-1.2-5.49-.08-8zm1.63-4.56a3.61 3.61 0 0 1 .14-3.11c1.6 1.51 1.23 2.44-.14 3.11zM32 157.93c-.83-.05-1-.6-.54-1.64.79 0 .97.54.54 1.64zm8.78-79.57l.3-1.69zm.36 4.42a3.44 3.44 0 0 1-.14-1.35zm-7.24 4.96c.05-.58.11-1.16.16-1.73-.06.57-.06 1.15-.16 1.73zm.65 17.56a2.14 2.14 0 0 1 .16-1.75c-.05.58-.11 1.17-.16 1.75zm.72 5.02a2.25 2.25 0 0 1-.55-1.87 2.72 2.72 0 0 1 .55 1.87zm-.27 2.37a2.49 2.49 0 0 1 .34-2 2.8 2.8 0 0 1-.34 2zm-11.91 46.59z" fill="#fa194a"></path><path d="M67.35 220.25c-.21-22.12-2.51-45.06-3.35-67.32-.85-22.87-2.58-45.74-3.47-68.61q-.64-16.3-.76-32.58c-.05-10.74 1.42-24.94-.36-35.55-1.56-9.31-4.06-1.79-7.52-2.52-.66-.14-.78-2.82-1.67-3-2.41-.48-2.49 2.45-4.32 2.07-2.12-.44 0-4.09-3.12-2.77a5.77 5.77 0 0 0-2.36 4.65C40.92 19.3 53 18 54.84 18.16c.37.05 3.74-1.41 2.4 1.88-1.19 2.89-5.79 1.19-7.61.91-2.22-.35-6.73-2.76-8.67-.41s-1.12 8.73-1.06 13.25c.38 30.59 1.72 59.32 3.58 89.88.42 6.84 0 13.81 0 20.81.07 6.45 1 12.7.8 19-.18 5.07.71 10.1.66 15.56 0 4.2-.33 4-.31 7.59 0 5.34 2.57 8.86 1.3 14.6-1.4-3.28-7.42-35.91-4-36.21-.3-3.56-3.5-12.15-.42-13.19-.27-2.17-1.12-4.39-1.31-6.51-.47-5 1.46-7.4 1.32-12-.12-4.32-2.29-6.54-1.92-10.54.2-2.2 2-1 1.53-4.09-.48-3.52-2.15-1.06-3.18-3.46-1.71-4-1.14-10.08-.85-14.17.4-5.5.37-12.41-1.52-17.82-.54-1.54-.7-5.1-2-2.41-1 2.17 1.13 12.17 1.22 13.79.3 5.11.13 10.41.39 15.23.14 2.76-.14 5.46 0 8.37s.43 6.08.5 9.09c1 .53 1.24 1.19.84 2-.14.71-.47 1.08-1 1.1 1.79 29 2.09 58.32 3.52 87.42-1.18.4-2.68-32.51-2.89-36.2-.76-13.75-2.26-28-2.62-41.64-.45-17.23-1.15-35.48-2.2-52.8-2.38 3.65-1.16 21-.74 26.49.82 10.62 1.71 19 .62 29.5-2-4.41-1.07-10.23-2.71-14.87-2.14 3.09-1.23 16-1 19.77.14 2.13.85 4.3 1 7 .17 3.78.06 7.26.39 11.15 1.21-.73 1.82-2.88 3-1.57 2.36 2.56-1.79 4.31-2 4.64-3.16 4.69-1.15 2.23-4.65 3.19.47 6.5 2.92 2.93 3.76 9 .46 3.29 1.15 12.61 0 15.56-2.19-2.37-.44-11-3.43-11.31-.14 5.35 1.09 10.32.17 15.56-4.85-18.69-1.38-38.83-4.17-57.75-.34 4.19-.35 8.53-1.11 12.55-2.14-1.56-1.76-8.87-2.27-11.79-.48-2.73-1.17-3.79-1.19-6.58 0-3.08 1.17-6.71 1.23-10 .24-13.29-1.64-28.21-2.54-41.59S15.61 59 14.6 45.5c-.33-4.39-.82-8-.94-12.39-.16-5.88-.57-15.39-2.86-20.54 2.16.13 6.53-1.19 3.69-6.81-1.9-3.76-1 1.8-2.35-.2-.57-.87-.71-4.66-1.63-5-2-1-.51 3.17-1.31 2.87S7.33.82 6.4.93C3 1.36 4.65 6.09 2 0-.63 4.92 0 8.15.27 15.12c.38 9.2.48 18.35.61 27.53.24 16.69.8 33.3 1.73 50 2 36.38 2.79 72.68 4.84 109.07 2.06 36.58 3.64 73.28 4.39 109.77.17 8.18-.15 19.22 1.73 27.19 2.13 9 4.26 4 8.32 5 1.84.47 3.64 3.47 5.44 3.64 2 .19 2.93-2.25 4.71-2.8 3.78-1.17 6.13 4.63 8.57-1.6.92.59 1.23 3.86 2.06 4.11 1.92.57 3.87-.13 5.81 0 4.77.24 9.49.05 14.26.21 3.46.11 7.4 2.71 9.2-3.09 1.66-5.33-.11-15.21-.32-21.25-1.17-34.1-3.94-68.68-4.27-102.65zM31.2 157.46c.19-1.11 0-1.37 1-.78-.27 1.5-.07 1.32-1 .78zM2.17 11.27c-1.41-4.47 6.45-1.7 6.46 2 .02 5.73-5.51.96-6.46-2zM19.88 163c1.75 1.75 1.17 3.91 1.21 7.43-1.83-3.2-1.95-5.07-1.21-7.43z" fill="#fa194a" opacity=".85" style="isolation:isolate"></path></svg>